<svg width="100" height="60" viewBox="0 0 100 60" fill="none" xmlns="http://www.w3.org/2000/svg">
<path fill-rule="evenodd" clip-rule="evenodd" d="M47.1709 0.383126C47.1709 0.593833 47.2478 1.99109 47.3418 3.48805C47.4357 4.98501 47.61 7.79015 47.729 9.72163C47.8481 11.6531 48.1206 16.0664 48.3347 19.5289C48.5486 22.9914 48.7812 26.7687 48.8514 27.9229C48.9216 29.0771 49.0981 31.9242 49.2436 34.2499C49.3891 36.5755 49.4963 38.5719 49.4818 38.6863C49.4585 38.8704 49.4015 38.8254 48.9855 38.2938C48.727 37.9635 48.5076 37.7016 48.4979 37.7118C48.48 37.7305 49.6954 42.2676 49.7781 42.4904C49.8164 42.5935 49.8304 42.5925 49.869 42.4839C49.9835 42.1619 51.2208 37.3998 51.1962 37.3755C51.1811 37.3604 50.9045 37.6959 50.5816 38.1209C50.2587 38.546 49.9824 38.8818 49.9676 38.8671C49.9402 38.8399 49.993 37.7873 50.2308 33.6188C50.7677 24.2042 51.0818 18.8398 51.6995 8.53927C51.9589 4.21448 52.1711 0.52394 52.1711 0.337987V0H49.671H47.1709V0.383126ZM37.5585 0.825525C35.0329 1.13036 35.2523 1.07435 35.3187 1.39683C35.3753 1.67169 36.1193 4.93268 38.2051 14.0471C38.825 16.7559 39.7191 20.6681 40.1921 22.7409C40.6649 24.8137 41.1479 26.9143 41.2652 27.409C41.3824 27.9036 41.7713 29.5996 42.1292 31.1777C42.7547 33.9355 43.0625 35.2829 43.6338 37.7644C43.7791 38.3955 43.8824 38.9275 43.8632 38.9466C43.8442 38.9656 43.5886 38.7827 43.2952 38.5402C43.0019 38.2976 42.7463 38.1149 42.7271 38.134C42.7078 38.1531 42.8709 38.5325 43.0895 38.9773C43.308 39.422 43.798 40.4218 44.1782 41.1991C44.5585 41.9764 44.8818 42.5546 44.8967 42.4839C44.9115 42.4133 45.0237 41.334 45.1458 40.0857C45.2679 38.8373 45.3844 37.7677 45.4046 37.7088C45.5031 37.4215 45.2499 37.6677 44.8378 38.26C44.4123 38.8715 44.3752 38.9035 44.3158 38.7097C44.2296 38.4283 43.8047 34.9267 42.7365 25.6959C42.2089 21.1368 40.4654 5.38878 40.1192 2.05567L39.9724 0.642398L39.6276 0.629893C39.4379 0.62304 38.5068 0.711092 37.5585 0.825525ZM60.0273 1.606C59.4147 7.27794 57.9015 20.9106 57.344 25.7816C57.104 27.8779 56.8496 30.1135 56.7785 30.7495C56.5211 33.0539 55.782 38.8392 55.7397 38.8813C55.7159 38.905 55.6621 38.8677 55.6203 38.7984C55.402 38.4367 54.7365 37.5083 54.7126 37.5321C54.6974 37.5472 54.7588 38.2725 54.849 39.1438C54.9392 40.0152 55.0547 41.1317 55.1057 41.6251C55.1565 42.1185 55.2103 42.5342 55.2251 42.5489C55.2398 42.5635 55.5297 42.0057 55.8693 41.3092C56.2088 40.6127 56.6939 39.6188 56.9472 39.1006C57.2004 38.5824 57.395 38.1442 57.3795 38.1266C57.3641 38.1091 57.0975 38.2955 56.7872 38.5408C56.4768 38.7862 56.223 38.9424 56.223 38.8881C56.223 38.8337 56.8081 36.2384 57.5233 33.1206C58.2385 30.0027 58.9539 26.8737 59.113 26.167C59.2722 25.4604 59.8142 23.0899 60.3175 20.8994C60.8209 18.7088 61.3682 16.3191 61.5338 15.5889C61.9935 13.5626 63.1859 8.35709 63.3782 7.53747C64.0611 4.62561 64.8365 1.16325 64.8113 1.13816C64.7763 1.10338 60.5792 0.601542 60.3132 0.600343C60.1505 0.599658 60.1271 0.682227 60.0273 1.606ZM26.6099 3.18535C25.4719 3.46887 24.5311 3.70972 24.5191 3.72069C24.5071 3.73156 25.1716 5.52951 25.9958 7.71606C26.82 9.90261 28.1748 13.5032 29.0066 15.7173C29.8384 17.9315 31.359 21.9786 32.3858 24.7109C35.0424 31.7812 36.6506 36.0629 37.2433 37.6445C37.5258 38.3983 37.7432 39.0293 37.7264 39.0468C37.7096 39.0642 37.4392 38.8965 37.1256 38.6743C36.812 38.4519 36.5395 38.2858 36.5201 38.3051C36.5007 38.3244 37.0562 39.2892 37.7545 40.4493L39.0241 42.5585L39.0787 41.8574C39.12 41.3269 39.1783 38.1149 39.1566 37.5636C39.1549 37.5191 38.9511 37.8172 38.7037 38.226C38.4564 38.6349 38.2275 38.9411 38.1952 38.9066C38.1628 38.8719 38.0372 38.4004 37.9159 37.8587C37.0643 34.051 33.1991 18.693 29.7514 5.41756C29.098 2.90158 29.0181 2.65593 28.8564 2.66261C28.7588 2.66664 27.7478 2.90193 26.6099 3.18535ZM70.8918 3.31906C70.7334 3.90946 70.4188 5.12437 68.729 11.6702C68.4888 12.6007 68.0952 14.1232 67.8543 15.0535C66.593 19.924 63.6273 31.7695 62.8627 34.9893C62.3819 37.015 61.96 38.7444 61.9254 38.8324C61.8745 38.9615 61.7737 38.8488 61.4038 38.2495C61.1517 37.8409 60.9354 37.5184 60.9235 37.5328C60.8591 37.61 60.9997 42.4866 61.0656 42.4648C61.1532 42.4357 63.6267 38.3471 63.586 38.2986C63.5716 38.2815 63.301 38.4471 62.9848 38.6668C62.6685 38.8864 62.3938 39.0503 62.3742 39.0309C62.3547 39.0115 62.8091 37.7473 63.384 36.2216C63.9589 34.6958 64.8488 32.3298 65.3615 30.9636C65.8742 29.5974 67.011 26.5717 67.8877 24.2398C71.1173 15.6501 71.6747 14.1651 73.4181 9.50749C74.3968 6.89293 75.2733 4.57319 75.3658 4.35246C75.5216 3.98056 75.5811 3.68308 75.4996 3.68308C75.4808 3.68308 74.5296 3.45182 73.3858 3.16916C72.242 2.88651 71.253 2.65525 71.188 2.65525C71.1135 2.65525 71.0042 2.90013 70.8918 3.31906ZM13.4198 8.26475C12.2818 8.80171 11.3605 9.2818 11.3724 9.33173C11.3922 9.41473 11.8195 10.0463 13.5039 12.4815C14.056 13.2797 16.4179 16.7161 18.4066 19.6146C18.843 20.2505 20.114 22.1006 21.2312 23.7259C22.3484 25.3512 23.5138 27.0471 23.8211 27.4946C24.1283 27.9422 26.0974 30.807 28.1967 33.8609C30.296 36.9148 31.9947 39.4322 31.9716 39.4552C31.9485 39.4781 31.6112 39.3379 31.2221 39.1435C30.8329 38.949 30.5003 38.8041 30.483 38.8214C30.4657 38.8386 31.3037 39.697 32.3455 40.7287C33.3872 41.7605 34.24 42.5679 34.2408 42.5229C34.244 42.3332 32.8243 38.1275 32.7686 38.1617C32.735 38.1823 32.6805 38.3782 32.6475 38.597C32.5081 39.5209 32.6337 39.7038 29.9041 34.6039C29.715 34.2505 29.2994 33.4797 28.9804 32.8908C28.0096 31.0985 27.7885 30.6856 26.8484 28.9079C26.35 27.9657 25.9141 27.1563 25.8795 27.1092C25.8449 27.0621 25.5539 26.5225 25.2328 25.9101C24.9115 25.2976 24.5036 24.5268 24.3261 24.197C20.7375 17.5294 16.1718 8.69576 15.7708 7.64454C15.6945 7.44428 15.5998 7.28231 15.5604 7.28445C15.521 7.28668 14.5577 7.72779 13.4198 8.26475ZM84.3343 7.60171C84.028 8.46578 80.0591 16.1961 76.8693 22.1413C76.6672 22.5182 75.6783 24.3683 74.6717 26.2527C73.6652 28.137 72.6758 29.9872 72.4731 30.364C72.2703 30.7409 71.369 32.4176 70.4701 34.0899C69.5712 35.7623 68.5694 37.6261 68.2438 38.2318C67.9183 38.8374 67.6342 39.2807 67.6126 39.2168C67.591 39.1529 67.5109 38.8554 67.4346 38.5556L67.2959 38.0107L66.6172 40.0974C66.2439 41.2451 65.9037 42.2805 65.8612 42.3983C65.8173 42.52 66.6046 41.7991 67.6847 40.7288C68.7301 39.6928 69.5855 38.8348 69.5855 38.822C69.5855 38.8093 69.2718 38.9556 68.8884 39.1472C68.5049 39.3388 68.1602 39.4837 68.1222 39.4694C68.0843 39.455 69.0492 37.9979 70.2664 36.2313C71.4836 34.4647 73.2469 31.9015 74.1849 30.5353C76.5834 27.042 79.2705 23.131 81.5414 19.8287C82.6104 18.2741 83.8421 16.4818 84.2785 15.8458C84.7149 15.2098 85.74 13.7158 86.5566 12.5257C87.3732 11.3357 88.1948 10.1441 88.3827 9.87769C88.5704 9.61139 88.7241 9.35854 88.7241 9.3158C88.7241 9.24557 87.8553 8.81516 85.4167 7.67726C84.9491 7.4591 84.5398 7.28051 84.5073 7.28051C84.4748 7.28051 84.3969 7.4251 84.3343 7.60171ZM43.5893 10.7456C43.1134 11.2184 43.4773 12.0771 44.1536 12.0771C44.8298 12.0771 45.1938 11.2184 44.7178 10.7456C44.5621 10.5908 44.4131 10.5353 44.1536 10.5353C43.8941 10.5353 43.745 10.5908 43.5893 10.7456ZM55.7449 10.7456C55.4418 11.0467 55.4496 11.58 55.7614 11.8671C56.2467 12.3138 57.088 11.9654 57.0823 11.32C57.0808 11.1475 57.0323 10.9453 56.9745 10.8705C56.6775 10.4862 56.0683 10.4243 55.7449 10.7456ZM34.1925 13.0582C33.8984 13.3504 33.8984 13.8873 34.1925 14.1794C34.512 14.497 35.0157 14.473 35.3094 14.1262C35.6117 13.7693 35.6018 13.4176 35.2806 13.0983C34.9513 12.7711 34.4982 12.7544 34.1925 13.0582ZM65.3612 12.9078C65.1261 12.9922 64.934 13.3144 64.932 13.6278C64.9293 14.0785 65.2453 14.3897 65.706 14.3897C66.1699 14.3897 66.4819 14.0794 66.4819 13.618C66.4819 13.0546 65.9291 12.7042 65.3612 12.9078ZM24.2457 15.5537C24.0347 15.73 23.9805 15.8424 23.9805 16.1028C23.9805 16.676 24.6734 17.0613 25.2003 16.7812C25.6768 16.5278 25.6656 15.7061 25.1823 15.4578C24.8251 15.2742 24.5457 15.3028 24.2457 15.5537ZM75.2538 15.4244C75.1708 15.4725 75.0422 15.6283 74.9682 15.7707C74.5521 16.5699 75.5917 17.2577 76.2409 16.6128C76.4678 16.3872 76.4966 16.3087 76.4527 16.0346C76.3629 15.4743 75.7269 15.1506 75.2538 15.4244ZM1.57781 17.3329L0 18.9023L1.19245 19.8745C2.42215 20.8771 5.77227 23.5915 8.72133 25.9746C9.64593 26.7218 10.4879 27.4063 10.5925 27.4957C10.6971 27.585 11.798 28.479 13.039 29.4822C19.8579 34.9946 22.8947 37.4536 23.4282 37.8951C23.8578 38.2505 26.0862 40.0496 26.2148 40.1448C26.3367 40.2349 26.0966 40.2439 25.6677 40.1652C25.3942 40.1149 25.1529 40.0914 25.1314 40.1128C25.1098 40.1341 25.2591 40.2456 25.4631 40.3604C25.6671 40.4752 26.5995 41.0193 27.5352 41.5693C28.471 42.1195 29.2546 42.5696 29.2768 42.5696C29.3188 42.5696 26.9802 38.8021 26.7182 38.4475C26.5726 38.2505 26.5694 38.2712 26.6187 39.1006L26.6694 39.9572L24.1826 37.4728C21.6192 34.9119 18.0504 31.31 14.8881 28.0921C13.8939 27.0804 12.4176 25.5782 11.6074 24.7537C8.46684 21.5582 4.92181 17.8196 3.89151 16.6167C3.54857 16.2163 3.2427 15.8605 3.21183 15.8261C3.18088 15.7917 2.4456 16.4698 1.57781 17.3329ZM96.3851 16.4202C94.6746 18.4493 87.3331 26.0006 75.4586 37.9443L73.4574 39.9572L73.4828 39.122C73.4966 38.6626 73.479 38.2869 73.4434 38.2869C73.4078 38.2869 73.378 38.3158 73.3772 38.3512C73.3763 38.3866 72.7966 39.3395 72.0891 40.4689C71.3815 41.5985 70.8134 42.5333 70.8266 42.5465C70.8398 42.5596 71.7852 42.0214 72.9275 41.3504C74.0698 40.6795 74.9889 40.1152 74.9701 40.0964C74.9512 40.0777 74.6981 40.1088 74.4074 40.1656C74.1169 40.2224 73.864 40.2538 73.8454 40.2353C73.8269 40.2169 74.1507 39.9275 74.565 39.5922C74.9794 39.257 76.2145 38.2576 77.3096 37.3714C78.4048 36.4852 79.4686 35.6253 79.6736 35.4604C79.8786 35.2955 80.7334 34.6017 81.5733 33.9186C83.7592 32.1406 86.4974 29.9204 87.6249 29.0116C88.1583 28.5817 89.3318 27.6322 90.2327 26.9017C91.1336 26.1711 93.6553 24.131 95.8364 22.3679C98.0175 20.6048 99.8696 19.0995 99.9521 19.0228C100.093 18.8918 100.006 18.7877 98.525 17.3179L96.9478 15.7526L96.3851 16.4202ZM44.7355 20.1353C44.6525 20.1834 44.5239 20.3392 44.4499 20.4816C44.173 21.0136 44.5571 21.5846 45.1921 21.5846C45.6484 21.5846 46.0033 21.1762 45.9323 20.7328C45.8447 20.1853 45.2028 19.8649 44.7355 20.1353ZM54.7507 20.2932C54.4295 20.6124 54.4196 20.9641 54.7219 21.321C55.2721 21.9707 56.3138 21.3922 56.046 20.5858C55.8616 20.0306 55.1719 19.8749 54.7507 20.2932ZM13.2042 20.5318C12.7991 20.6798 12.5983 21.1651 12.7708 21.5788C13.0486 22.2453 14.1001 22.145 14.2795 21.4348C14.4248 20.8598 13.7826 20.3206 13.2042 20.5318ZM86.5592 20.5996C86.4353 20.6664 86.2854 20.8376 86.2261 20.9799C86.0029 21.5152 86.3555 22.0128 86.958 22.0128C87.7681 22.0128 88.0491 20.9615 87.3369 20.5955C87.0375 20.4418 86.8496 20.4427 86.5592 20.5996ZM36.7655 22.2503C36.1372 22.7408 36.4576 23.6403 37.2608 23.6403C37.5184 23.6403 37.6328 23.5854 37.8095 23.3767C38.1118 23.0198 38.1019 22.6681 37.7807 22.3489C37.4871 22.0572 37.0653 22.0163 36.7655 22.2503ZM62.682 22.3489C62.1735 22.8541 62.4828 23.6403 63.1902 23.6403C63.6947 23.6403 63.9825 23.3801 63.9791 22.9274C63.9761 22.5412 63.8735 22.3545 63.578 22.1981C63.2591 22.0294 62.9515 22.0811 62.682 22.3489ZM28.0257 24.4045C27.6919 24.7362 27.6822 25.1534 28.001 25.4702C28.5004 25.9663 29.3286 25.6406 29.3227 24.9503C29.3166 24.2176 28.542 23.8916 28.0257 24.4045ZM71.4998 24.2439C71.2552 24.3415 71.0292 24.8516 71.1023 25.1412C71.1815 25.4545 71.5361 25.6959 71.9171 25.6959C72.1748 25.6959 72.2892 25.641 72.4658 25.4324C72.7682 25.0755 72.7583 24.7238 72.437 24.4045C72.1745 24.1437 71.8783 24.0929 71.4998 24.2439ZM19.6709 27.768C19.2887 27.9085 19.1527 28.0967 19.1527 28.4853C19.1527 28.7902 19.1978 28.8875 19.4282 29.0801C19.652 29.2672 19.7609 29.3013 20.0101 29.2619C20.3698 29.2051 20.7045 28.865 20.7045 28.5563C20.7045 28.3799 20.491 27.8373 20.4216 27.8373C20.4106 27.8373 20.2852 27.804 20.1428 27.7635C19.9934 27.7209 19.7939 27.7228 19.6709 27.768ZM80.3009 27.7663C79.5028 27.9797 79.6195 29.1303 80.4527 29.2619C80.7018 29.3013 80.8108 29.2672 81.0346 29.0801C81.2649 28.8875 81.31 28.7902 81.31 28.4853C81.31 27.9411 80.8563 27.6177 80.3009 27.7663ZM45.8464 29.7761C45.5135 30.1068 45.5297 30.5739 45.8844 30.8703C46.1842 31.1209 46.4637 31.1498 46.8199 30.9668C47.1006 30.8226 47.1709 30.6824 47.1709 30.2675C47.1709 29.6041 46.3325 29.2931 45.8464 29.7761ZM53.5035 29.7606C53.3477 29.9153 53.2918 30.0634 53.2918 30.3212C53.2918 31.0508 54.0682 31.3617 54.5916 30.8417C54.9128 30.5225 54.9227 30.1708 54.6204 29.8139C54.3267 29.4671 53.823 29.4431 53.5035 29.7606ZM39.5939 31.383C39.1204 31.6437 39.0363 32.1584 39.4011 32.5639C39.5932 32.7775 39.7185 32.8394 39.9591 32.8394C40.7658 32.8394 41.0605 31.7516 40.3525 31.3878C40.0565 31.2357 39.8635 31.2345 39.5939 31.383ZM60.0424 31.4309C59.5014 31.7586 59.6088 32.6009 60.2171 32.8003C60.5287 32.9025 60.7408 32.8594 60.996 32.6422C61.3994 32.2987 61.3347 31.6264 60.8754 31.3904C60.5478 31.2221 60.3731 31.2306 60.0424 31.4309ZM32.1411 32.9877C31.732 33.2239 31.7043 33.9649 32.0926 34.2827C32.564 34.6684 33.3773 34.2597 33.3773 33.6371C33.3773 33.0615 32.663 32.6862 32.1411 32.9877ZM67.3126 33.1166C66.7458 33.6798 67.2891 34.5938 68.0744 34.3979C68.6347 34.2582 68.8373 33.5101 68.4255 33.1011C68.1263 32.8037 67.6205 32.8107 67.3126 33.1166ZM26.042 34.885C25.8451 35.0352 25.7047 35.3286 25.7047 35.5898C25.7047 35.9116 26.1352 36.3169 26.4769 36.3169C27.2526 36.3169 27.604 35.3436 26.9841 34.9123C26.7525 34.7512 26.2371 34.7362 26.042 34.885ZM73.3615 35.0361C73.1346 35.2616 73.1058 35.3401 73.1496 35.6142C73.2752 36.3975 74.2674 36.5829 74.6279 35.8904C74.812 35.5365 74.7907 35.3407 74.5349 35.0387C74.2204 34.6674 73.7336 34.6663 73.3615 35.0361ZM15.3907 43.469C15.2374 43.8657 15.0125 43.8519 22.0163 43.8753L28.5927 43.8972L28.6153 47.045L28.638 50.1927H21.8687H15.0995L15.1217 55.0769L15.144 59.9611L49.8219 59.9806L84.4998 60V55.0964V50.1927H77.7754H71.051V47.0236V43.8544H77.6369C83.6395 43.8544 84.2274 43.8421 84.2765 43.715C84.4291 43.3201 86.3043 43.3405 49.787 43.3405C19.3361 43.3405 15.4347 43.355 15.3907 43.469ZM70.7062 44.7541V45.3961H49.8434H28.9806V44.7609C28.9806 44.4115 29.0194 44.1128 29.0669 44.097C29.1143 44.0814 38.5025 44.0783 49.9296 44.0903L70.7062 44.112V44.7541ZM70.689 46.2741L70.7148 46.7666H49.8477H28.9806V46.2525V45.7384L49.8219 45.76L70.6631 45.7816L70.689 46.2741ZM70.6915 47.6874L70.6631 48.1799H49.8434H29.0237L28.9979 47.6874L28.972 47.1949H49.846H70.72L70.6915 47.6874ZM70.6879 49.3576L70.6631 50.1499L49.8219 50.1715L28.9806 50.1931V49.3792V48.5653H49.8467H70.7127L70.6879 49.3576ZM27.8391 55.0964L27.8615 59.6146H21.6967H15.5319V55.0743V50.5342L21.6744 50.5561L27.8168 50.5782L27.8391 55.0964ZM28.6358 55.0749V59.6146H28.4203H28.2048V55.0749V50.5353H28.4203H28.6358V55.0749ZM41.6327 55.0964L41.655 59.6146H35.3178H28.9806V55.1321C28.9806 52.6666 29.0068 50.6236 29.0387 50.5919C29.0706 50.5602 31.9123 50.5441 35.3535 50.5562L41.6104 50.5782L41.6327 55.0964ZM42.4086 55.0976L42.4309 59.6146H42.2146H41.9983V55.1321C41.9983 52.6666 42.0256 50.6225 42.0588 50.5895C42.092 50.5564 42.1793 50.5409 42.2527 50.5549C42.3709 50.5776 42.3889 51.0988 42.4086 55.0976ZM49.2192 55.0964L49.2415 59.6146H46.0079H42.7742V55.1321C42.7742 52.6666 42.8005 50.6234 42.8328 50.5914C42.8649 50.5594 44.31 50.5434 46.0441 50.5557L49.1968 50.5782L49.2192 55.0964ZM50.0158 55.0749V59.6146H49.8003H49.5848V55.1321C49.5848 52.6666 49.6107 50.6238 49.6423 50.5925C49.6738 50.561 49.7708 50.5353 49.8578 50.5353C50.009 50.5353 50.0158 50.73 50.0158 55.0749ZM69.2199 55.0964L69.2422 59.6146H59.8445H50.4469V55.0746V50.5346L59.8222 50.5564L69.1975 50.5782L69.2199 55.0964ZM70.0165 55.0749V59.6146H69.801H69.5855V55.1321C69.5855 52.6666 69.6113 50.6238 69.643 50.5925C69.6745 50.561 69.7715 50.5353 69.8585 50.5353C70.0097 50.5353 70.0165 50.73 70.0165 55.0749ZM84.1549 55.0749V59.6146H77.3013H70.4476V55.0749V50.5353H77.3013H84.1549V55.0749Z" fill="#C0828A"/>
</svg>
