<svg width="100" height="74" viewBox="0 0 100 74" fill="none" xmlns="http://www.w3.org/2000/svg">
<path fill-rule="evenodd" clip-rule="evenodd" d="M16.0848 0.199655C15.5228 0.460521 15.2206 0.93985 15.2201 1.57092C15.2195 2.2499 15.5492 2.6994 16.2413 2.96338L16.7864 3.17124L16.7876 4.39243L16.7887 5.61361H16.5272C16.3785 5.61361 16.2657 5.67358 16.2657 5.75278C16.2657 5.86835 16.6636 7.24127 16.8579 7.79616C16.8964 7.90622 17.5938 5.94047 17.623 5.63959C17.6244 5.62536 17.4843 5.61361 17.3117 5.61361H16.9979V4.37798V3.14245L17.3647 3.07407C17.8776 2.97845 18.5278 2.34073 18.6223 1.84072C18.8621 0.570584 17.3678 -0.395867 16.0848 0.199655ZM90.218 0.193835C89.6269 0.505939 89.3559 0.989633 89.4084 1.6391C89.44 2.03081 89.5241 2.26278 89.7053 2.45869C91.0506 3.91206 93.5185 2.5514 92.6515 0.83436C92.274 0.086683 91.0374 -0.238828 90.218 0.193835ZM23.9621 1.19032C23.3325 1.42043 22.9474 1.86265 22.8832 2.42938C22.7886 3.2627 23.2841 3.96912 24.0652 4.11472L24.4317 4.18301L24.4021 5.23614C24.3738 6.23875 24.3611 6.29072 24.137 6.32242C24.0075 6.34061 23.9017 6.37366 23.9017 6.39569C23.9017 6.52945 24.4642 8.38243 24.5251 8.44936C24.5659 8.49426 24.7218 8.12011 24.8712 7.61792C25.2563 6.32502 25.2578 6.29831 24.9477 6.29332C24.689 6.28916 24.6859 6.27835 24.6563 5.27407C24.6297 4.37476 24.6476 4.25233 24.8132 4.20171C25.4976 3.99219 25.895 3.72322 26.0946 3.33441C26.3528 2.83149 26.3631 2.48759 26.1343 2.00846C25.7866 1.28064 24.7665 0.896303 23.9621 1.19032ZM68.7238 1.09169C68.6663 1.11082 68.4934 1.15384 68.3396 1.18741C67.9489 1.27274 67.4412 1.81006 67.3164 2.27058C67.1071 3.04268 67.5736 3.81488 68.4244 4.10485L68.8285 4.24266L68.8587 5.13595L68.8889 6.02934H68.6233C68.4773 6.02934 68.3576 6.08785 68.3575 6.15925C68.3571 6.36856 68.9273 8.21125 68.9925 8.21157C69.0505 8.21188 69.613 6.335 69.613 6.14116C69.613 6.08764 69.507 6.02882 69.3776 6.01063C69.155 5.97914 69.1423 5.93039 69.1423 5.11028V4.24318L69.5463 4.10516C70.7337 3.69963 71.0906 2.34925 70.2232 1.54421C69.8292 1.17847 69.1136 0.96261 68.7238 1.09169ZM78.9749 1.19614C78.2362 1.45462 77.7463 2.27775 77.9206 2.96775C78.0217 3.36777 78.6082 3.94147 79.0795 4.10132L79.4979 4.24318V5.26617V6.28916L79.2248 6.32065L78.9516 6.35214L79.266 7.43479C79.4389 8.03021 79.6171 8.49488 79.6618 8.46734C79.7067 8.4399 79.7765 8.26592 79.8171 8.08082C79.8576 7.89562 79.979 7.46919 80.0866 7.13308C80.3319 6.36763 80.3316 6.36254 80.0471 6.32242C79.823 6.29072 79.8102 6.23875 79.782 5.23614L79.7524 4.18301L80.1114 4.11608C80.8514 3.97816 81.3285 3.3606 81.3285 2.54059C81.3285 2.11811 81.2775 2.00493 80.9338 1.66341C80.5763 1.30808 79.965 1.03526 79.5502 1.04576C79.4639 1.04804 79.205 1.1157 78.9749 1.19614ZM4.50774 2.7312C3.8931 3.08041 3.66109 3.45237 3.66109 4.08822C3.66109 4.46403 3.72416 4.71035 3.87029 4.90501C4.09655 5.20662 4.74372 5.61361 4.99686 5.61361C5.19153 5.61361 5.25847 5.94588 5.26161 6.92771L5.26402 7.69223H4.95241C4.70429 7.69223 4.65199 7.72933 4.69582 7.8741C4.72615 7.97419 4.87165 8.4741 5.01904 8.98502C5.16653 9.49594 5.30617 9.93307 5.3295 9.95625C5.37594 10.0024 6.01464 8.00225 6.01464 7.8106C6.01464 7.74554 5.89697 7.69223 5.75314 7.69223H5.49163V6.65292C5.49163 5.78645 5.51841 5.61361 5.65272 5.61361C5.98243 5.61361 6.62866 5.19228 6.85356 4.8307C7.35795 4.01984 6.88619 2.90248 5.91778 2.61417C5.33347 2.4403 4.96632 2.47075 4.50774 2.7312ZM47.793 2.69368C47.0448 3.03135 46.6727 3.79524 46.9094 4.50779C47.0644 4.97475 47.6381 5.47923 48.115 5.56809L48.4833 5.63679V6.66445C48.4833 7.68485 48.4814 7.69223 48.2279 7.69223C48.0874 7.69223 47.9541 7.72735 47.9314 7.77017C47.9087 7.81299 48.0426 8.33919 48.2289 8.93939C48.4186 9.55051 48.5949 9.96207 48.6295 9.87477C48.7635 9.53648 49.2155 7.95933 49.2155 7.82983C49.2155 7.7523 49.1013 7.69223 48.954 7.69223C48.6927 7.69223 48.6925 7.6915 48.6925 6.66445V5.63679L49.0555 5.56903C49.5287 5.48089 50.105 4.9337 50.2413 4.44314C50.4588 3.66055 49.9576 2.8316 49.1288 2.60284C48.5834 2.45235 48.2826 2.47272 47.793 2.69368ZM61.0826 2.95371C60.6565 3.13809 60.2225 3.66741 60.1403 4.10288C60.0066 4.81054 60.3987 5.4467 61.1644 5.76452C61.6903 5.98288 62.1389 5.96666 62.6723 5.71016C63.8442 5.14644 63.8494 3.53864 62.6809 3.0116C62.1673 2.77994 61.5369 2.75708 61.0826 2.95371ZM29.7577 5.80609C28.4796 6.48091 28.6883 8.20211 30.0994 8.62293L30.4916 8.73985V9.98286V11.2259H30.2301C30.0863 11.2259 29.9686 11.2706 29.9686 11.3251C29.9686 11.4992 30.5149 13.3531 30.5908 13.4368C30.6546 13.507 31.2908 11.4649 31.2472 11.3298C31.2379 11.3012 31.1112 11.2631 30.9656 11.245L30.7008 11.212V9.97579V8.73953L31.1429 8.62126C31.6833 8.47669 32.2363 7.92389 32.3283 7.43614C32.569 6.16174 30.9857 5.15777 29.7577 5.80609ZM37.1544 5.9518C35.9118 6.71829 36.1237 8.31092 37.5261 8.7465L37.9184 8.86841V9.89119V10.9141H37.6456C37.4006 10.9141 37.3799 10.9433 37.443 11.1999C37.5945 11.8161 38.0429 13.2154 38.0777 13.1808C38.0981 13.1606 38.2365 12.7242 38.3854 12.211C38.5343 11.6977 38.6805 11.1993 38.7104 11.1033C38.7508 10.973 38.6906 10.9203 38.4723 10.8955L38.1799 10.8621V9.8834V8.90479L38.4937 8.80491C39.601 8.45248 40.1209 7.35819 39.5659 6.54795C39.1855 5.99254 38.8249 5.78718 38.1551 5.74467C37.6609 5.71328 37.4806 5.75059 37.1544 5.9518ZM86.3335 7.59017C85.6459 7.95112 85.3069 8.86727 85.6299 9.49189C85.8502 9.9178 86.2866 10.2936 86.6843 10.4L87.0816 10.5064V11.5417C87.0816 12.5767 87.0815 12.577 86.8201 12.577C86.6763 12.577 86.5591 12.6121 86.5597 12.6549C86.5614 12.7619 87.1778 14.7858 87.2222 14.83C87.2511 14.8587 87.5136 14.0325 87.8801 12.7588C87.9203 12.6194 87.87 12.577 87.6639 12.577H87.3954V11.5489V10.5209L87.6831 10.4496C88.0785 10.3515 88.6189 9.92528 88.8076 9.56277C89.325 8.56878 88.4562 7.37389 87.2243 7.38501C86.9316 7.38771 86.5531 7.4748 86.3335 7.59017ZM93.8808 7.49133C92.4608 8.08269 92.5986 9.9628 94.0947 10.4081L94.5084 10.5313V11.5541C94.5084 12.5758 94.5081 12.577 94.2469 12.577C94.0802 12.577 93.9854 12.6355 93.9854 12.7384C93.9854 12.9833 94.5362 14.7595 94.6121 14.7595C94.6804 14.7595 95.2406 12.9252 95.2406 12.7016C95.2406 12.6331 95.1229 12.577 94.9791 12.577C94.7179 12.577 94.7176 12.5758 94.7176 11.5541V10.5313L95.1534 10.4015C96.4143 10.0262 96.7371 8.56244 95.7359 7.76082C95.418 7.50629 95.2261 7.43936 94.7422 7.4139C94.4122 7.39654 94.0246 7.43136 93.8808 7.49133ZM56.9957 8.15337C56.1779 8.50694 55.8609 9.56703 56.3549 10.2955C57.0907 11.3802 58.8514 11.2984 59.3979 10.1541C59.6235 9.68167 59.6167 9.33173 59.3727 8.85646C58.9933 8.11741 57.8564 7.78119 56.9957 8.15337ZM10.7201 9.65153C10.1809 9.93619 9.88494 10.4273 9.88494 11.0374C9.88494 11.4827 9.93358 11.5965 10.2772 11.955C11.3724 13.098 13.3368 12.4416 13.3368 10.9328C13.3368 10.555 12.9668 10.0025 12.5082 9.69539C12.0604 9.39544 11.243 9.37538 10.7201 9.65153ZM70.8159 10.4237C69.8304 10.9741 69.7872 12.3238 70.7349 12.9526C71.4569 13.4316 72.3729 13.3485 73.037 12.7438C73.359 12.4506 73.4173 12.3251 73.4564 11.8406C73.494 11.3745 73.4598 11.2171 73.2572 10.9247C72.744 10.1839 71.648 9.95895 70.8159 10.4237ZM62.9184 11.0306C62.5253 11.1859 62.1008 11.6323 61.969 12.0293C61.7088 12.8128 62.2155 13.6871 63.0763 13.9396L63.546 14.0774V15.3018V16.5263H63.221C62.9947 16.5263 62.9121 16.568 62.9491 16.6636C62.9782 16.7392 63.1322 17.2319 63.2913 17.7585C63.4504 18.2853 63.6149 18.6795 63.6568 18.6346C63.7415 18.5438 64.2782 16.8223 64.2782 16.6412C64.2782 16.578 64.1606 16.5263 64.0167 16.5263H63.7552V15.2904V14.0545L64.0429 13.9831C64.4983 13.8703 65.002 13.5183 65.1699 13.1957C65.3899 12.7731 65.3636 12.0707 65.1126 11.6615C64.7429 11.0591 63.6452 10.7434 62.9184 11.0306ZM16.2134 12.727C15.4164 13.0163 14.968 13.8459 15.2117 14.5797C15.3934 15.1268 16.0867 15.6949 16.5726 15.6949C16.7766 15.6949 16.7887 15.7532 16.7887 16.7342C16.7887 17.7538 16.7841 17.7735 16.5447 17.7735C16.4104 17.7735 16.2753 17.7985 16.2446 17.8291C16.2137 17.8598 16.3331 18.3741 16.5097 18.9721C16.6864 19.5703 16.8632 20.0245 16.9026 19.9818C16.9865 19.8908 17.521 18.0942 17.5209 17.9034C17.5209 17.832 17.4032 17.7735 17.2594 17.7735C16.9981 17.7735 16.9979 17.7728 16.9979 16.7457V15.7181L17.3892 15.6451C17.6499 15.5965 17.9118 15.4351 18.1737 15.1614C18.5219 14.7979 18.5669 14.6906 18.5669 14.2255C18.5669 13.9314 18.4935 13.5769 18.4001 13.4197C18.0016 12.7493 17.0138 12.4365 16.2134 12.727ZM45.1883 14.153C44.5037 14.5283 44.1203 15.2167 44.2407 15.8545C44.3331 16.3437 44.8858 16.8951 45.4296 17.0406L45.875 17.1597L45.8454 18.3232C45.8159 19.4857 45.8157 19.4867 45.5425 19.5395L45.269 19.5923L45.5905 20.6566C45.7673 21.2421 45.9424 21.6864 45.9796 21.644C46.0598 21.5526 46.6004 19.8208 46.6004 19.6551C46.6004 19.592 46.4827 19.5403 46.3389 19.5403H46.0774V18.3492V17.1579L46.4845 17.049C46.7414 16.9803 47.0352 16.7821 47.2806 16.5123C47.6531 16.1026 47.6678 16.0585 47.6253 15.4754C47.5756 14.7928 47.3228 14.4235 46.7345 14.1745C46.3328 14.0045 45.4809 13.9926 45.1883 14.153ZM78.7564 14.2285C77.4642 15.0114 77.6886 16.6599 79.1403 17.0483L79.5576 17.1599L79.5278 18.1674C79.4983 19.1613 79.4942 19.1756 79.2247 19.2277L78.9515 19.2805L79.2677 20.3458C79.4416 20.9316 79.6117 21.4109 79.6455 21.4107C79.7028 21.4103 80.2896 19.4786 80.2846 19.3065C80.2835 19.2636 80.1647 19.2285 80.0209 19.2285C79.7595 19.2285 79.7594 19.2282 79.7594 18.1933V17.1579L80.1517 17.0482C81.6415 16.6314 81.7776 14.677 80.3541 14.1426C79.889 13.968 79.118 14.0094 78.7564 14.2285ZM33.8677 15.3769C33.3949 15.493 33.0265 15.7542 32.7883 16.1422C32.2721 16.9833 32.8254 18.1593 33.8315 18.3593C34.2359 18.4396 34.2751 18.5842 34.2357 19.851C34.2079 20.7429 34.185 20.8406 33.9958 20.8744C33.8808 20.8949 33.7526 20.9432 33.711 20.9818C33.6695 21.0204 33.7925 21.542 33.9843 22.141C34.1771 22.7431 34.3599 23.1601 34.3931 23.074C34.6199 22.4841 34.9869 21.0753 34.9354 20.9923C34.9008 20.9368 34.7813 20.8914 34.6696 20.8914C34.4799 20.8914 34.4665 20.8095 34.4665 19.6443C34.4665 18.4203 34.4709 18.3971 34.7019 18.3967C35.0458 18.3962 35.5883 18.0334 35.8269 17.6445C36.55 16.4662 35.3042 15.0243 33.8677 15.3769ZM53.0242 15.6836C52.4601 16.0253 52.249 16.3864 52.249 17.0096C52.249 17.4959 52.2932 17.6165 52.5889 17.9352C52.7759 18.1368 53.1172 18.3656 53.3473 18.4435L53.7657 18.5852L53.7956 19.7039C53.8257 20.8353 53.757 21.0661 53.4257 20.9456C53.3539 20.9194 53.295 20.957 53.295 21.0291C53.295 21.2322 53.825 23.0119 53.9124 23.1023C53.9822 23.1744 54.5688 21.3 54.5556 21.0473C54.5503 20.946 54.5117 20.9312 54.1806 20.9044C54.0451 20.8934 54.0249 20.7126 54.0499 19.7313L54.0795 18.5714L54.4507 18.4582C54.6549 18.396 54.9276 18.2691 55.0568 18.1762C55.3288 17.9806 55.7008 17.3039 55.7008 17.0048C55.7008 16.5899 55.2882 15.9442 54.8759 15.714C54.3507 15.4207 53.4816 15.4065 53.0242 15.6836ZM68.531 15.6439C67.7444 15.8423 67.3117 16.3694 67.3117 17.1293C67.3117 17.7865 67.768 18.3109 68.5931 18.6021L68.8808 18.7037V19.9534V21.2032H68.6122C68.406 21.2032 68.356 21.2454 68.3967 21.3851C68.7221 22.5011 69.0055 23.3858 69.0377 23.3858C69.0698 23.3858 69.3532 22.5011 69.6787 21.3851C69.7193 21.2454 69.6694 21.2032 69.4631 21.2032H69.1946V19.9528C69.1946 18.8517 69.2164 18.6959 69.3776 18.6486C70.2351 18.3966 70.7638 17.809 70.7632 17.1086C70.7622 16.0307 69.7167 15.3446 68.531 15.6439ZM23.6893 16.8641C22.8099 17.3055 22.4982 18.2259 22.9708 18.9856C23.1851 19.3303 23.8364 19.7482 24.159 19.7482C24.2928 19.7482 24.3201 19.9158 24.3201 20.7355C24.3201 21.7214 24.3197 21.7229 24.0566 21.7229C23.7532 21.7229 23.7511 21.7023 24.2091 23.1751L24.4829 24.0556L24.7746 23.0712C24.935 22.5297 25.0899 22.0047 25.1186 21.9047C25.1588 21.7653 25.1085 21.7229 24.9024 21.7229H24.6339V20.7485V19.7742L24.9565 19.71C25.9968 19.5033 26.5347 18.3003 25.9667 17.4511C25.6939 17.0433 24.9445 16.6303 24.477 16.6303C24.3 16.6303 23.9456 16.7354 23.6893 16.8641ZM88.6926 16.8283C87.9443 17.1659 87.5723 17.9298 87.809 18.6424C87.964 19.1093 88.5377 19.6138 89.0145 19.7027L89.3828 19.7714V20.799C89.3828 21.8261 89.3826 21.8268 89.1213 21.8268C88.9415 21.8268 88.8602 21.8835 88.8612 22.0087C88.8638 22.3482 89.4664 24.1662 89.5243 24.0093C89.7041 23.5226 90.0128 22.4919 90.0709 22.184C90.1338 21.8511 90.1198 21.8268 89.8652 21.8268H89.592V20.799V19.7714L89.9347 19.7074C91.1365 19.4835 91.6062 17.9513 90.724 17.1326C90.1766 16.6245 89.4015 16.5085 88.6926 16.8283ZM7.32218 17.6248C6.67071 17.9606 6.33379 18.6469 6.48494 19.3305C6.58305 19.7742 7.17762 20.339 7.69132 20.4765L8.11412 20.5896L8.08431 21.5979L8.05439 22.6063L7.75847 22.64C7.57406 22.6609 7.48149 22.7225 7.51266 22.8032C7.54027 22.8745 7.69289 23.3638 7.85199 23.8904C8.01109 24.4172 8.17259 24.8114 8.21088 24.7665C8.28253 24.6825 8.84257 22.8758 8.84027 22.7362C8.83954 22.6933 8.71956 22.6582 8.57374 22.6582H8.30858L8.33839 21.6091L8.3682 20.5599L8.78661 20.4182C9.01674 20.3403 9.35805 20.1115 9.54498 19.9099C9.83138 19.6011 9.88494 19.4637 9.88494 19.0376C9.88494 18.0952 9.19069 17.4616 8.159 17.4625C7.87134 17.4627 7.49477 17.5358 7.32218 17.6248ZM2.5908 26.5473C1.57458 26.9224 0.828974 27.5647 0.291422 28.5277L0 29.05V37.6264V46.2028L0.344352 46.8979C0.909206 48.0379 2.06056 48.8225 3.50418 49.0512C4.37333 49.1889 95.512 49.2001 96.4688 49.0626C97.825 48.8677 99.0434 48.0158 99.6709 46.8238L100 46.1985V37.7282V29.2578L99.7279 28.6814C99.2218 27.6094 98.2737 26.8007 97.1256 26.462C96.6131 26.3108 92.3666 26.2963 49.9025 26.3012L3.24268 26.3066L2.5908 26.5473ZM96.9665 27.8344C97.5983 28.1236 98.0081 28.4944 98.3098 29.05L98.5356 29.4657V37.7282C98.5356 47.019 98.604 46.2419 97.7149 47.0562C96.8085 47.8862 101.598 47.8135 49.7363 47.7839L3.34728 47.7575L2.80868 47.4752C2.18086 47.1463 1.70021 46.6101 1.53149 46.0508C1.44655 45.7688 1.41213 43.3363 1.41213 37.6066V29.5585L1.67877 29.0269C2.04508 28.2966 2.69111 27.818 3.53525 27.6518C3.77699 27.6041 24.7803 27.5719 50.2092 27.5801L96.4435 27.595L96.9665 27.8344ZM5.18337 30.0826C4.97249 30.3352 5.22594 30.6609 5.63326 30.6609C6.2091 30.6609 7.01621 30.9551 7.56193 31.364C7.84697 31.5775 8.48264 32.2019 8.97458 32.7517C9.891 33.7756 10.8584 34.5171 11.5402 34.7182C12.2085 34.9152 13.2004 34.9572 13.8669 34.8167C14.8594 34.6074 15.6614 34.0601 16.7661 32.8382C18.3691 31.065 19.2389 30.5776 20.6055 30.6866C21.7247 30.7759 22.1241 31.0303 23.7448 32.6862C24.9927 33.9614 25.3136 34.231 25.9154 34.5102C27.3416 35.1719 29.0536 35.0066 30.3033 34.0866C30.6196 33.8539 31.3234 33.1628 31.8678 32.5511C32.6344 31.6893 33.0092 31.3569 33.5312 31.0758C34.1604 30.7369 34.2675 30.713 35.1464 30.7149C36.5141 30.718 36.8055 30.885 38.5983 32.6939C39.4038 33.5066 40.2302 34.2685 40.4348 34.387C41.3492 34.9163 42.7894 35.0597 43.8618 34.728C44.7371 34.4574 44.9982 34.2582 46.6004 32.6389C48.3404 30.8804 48.64 30.711 50 30.717C51.393 30.7233 51.9503 31.0443 53.3473 32.6454C54.884 34.4065 56.0497 35.0064 57.7152 34.893C58.3939 34.8467 58.6972 34.7652 59.3096 34.4646C59.9595 34.1454 60.2527 33.8963 61.3946 32.6931C63.0659 30.9319 63.4503 30.7119 64.8536 30.7146C65.6909 30.7163 65.855 30.7494 66.3374 31.0133C66.6358 31.1767 67.1771 31.619 67.5404 31.9965C69.3904 33.9186 69.7134 34.2035 70.4198 34.536C71.0795 34.8465 71.2074 34.87 72.228 34.8693C73.2554 34.8684 73.3717 34.8464 74.0289 34.5279C74.7446 34.1809 75.2303 33.7544 76.7372 32.1501C77.2294 31.6262 77.7483 31.1904 78.0971 31.008C78.5961 30.7472 78.7696 30.7134 79.6025 30.7144C80.9707 30.7161 81.2693 30.8853 83.0021 32.6412C83.7788 33.4283 84.6025 34.1912 84.8326 34.3366C85.7011 34.8857 87.0395 35.057 88.1717 34.764C89.2266 34.491 89.6813 34.1499 91.2358 32.4657C92.3022 31.3102 93.0366 30.833 93.9331 30.7133C94.7798 30.6002 94.838 30.5701 94.8021 30.2622C94.7735 30.0164 94.7196 29.9817 94.3211 29.9532C93.7764 29.9142 92.8416 30.1715 92.2258 30.5301C91.9758 30.6757 91.4339 31.1494 91.0216 31.5828C89.4316 33.2541 89.0557 33.5885 88.4636 33.8589C87.357 34.3639 86.1203 34.2591 85.0758 33.5718C84.8092 33.3963 84.1572 32.7631 83.627 32.1649C82.6242 31.0332 81.734 30.3447 80.9787 30.1166C80.7395 30.0444 80.0942 29.9854 79.5446 29.9854C78.6002 29.9854 78.5014 30.0069 77.7507 30.3756C77.0567 30.7165 76.7904 30.9406 75.6442 32.1484C73.9925 33.8889 73.5569 34.1431 72.228 34.1415C70.8821 34.14 70.5889 33.9702 68.8249 32.1695C67.5674 30.8858 67.2525 30.6218 66.6282 30.3282C65.9479 30.0081 65.8267 29.9854 64.8013 29.9854C63.7822 29.9854 63.6519 30.0094 62.9951 30.3185C62.2869 30.6518 61.9799 30.9221 60.1531 32.8206C59.1549 33.858 58.5568 34.1426 57.3745 34.1426C56.0343 34.1426 55.6357 33.9107 53.982 32.1694C52.8165 30.942 52.5531 30.72 51.8546 30.377C51.1008 30.0067 51.0029 29.9854 50.058 29.9854C49.5083 29.9854 48.863 30.0444 48.6238 30.1166C47.8588 30.3477 46.9555 31.0463 45.9753 32.1651C44.5542 33.787 43.6156 34.2874 42.2343 34.1592C41.2008 34.0633 40.4856 33.6272 39.4053 32.4342C37.9522 30.8293 37.4545 30.4441 36.4185 30.1229C35.2932 29.7738 33.7704 29.96 32.881 30.5553C32.6887 30.6841 31.8959 31.4316 31.1192 32.2165C29.381 33.9734 29.0813 34.1429 27.7197 34.1384C26.4754 34.1345 25.9559 33.8748 24.8567 32.707C23.3421 31.0982 22.8639 30.678 22.1508 30.3292C21.4905 30.006 21.3819 29.9854 20.3475 29.9854C19.3184 29.9854 19.1993 30.0078 18.5146 30.3298C17.8858 30.6256 17.5757 30.8854 16.318 32.1705C14.5554 33.9715 14.2612 34.1422 12.9184 34.1418C11.5801 34.1413 11.1564 33.8981 9.56308 32.2155C8.86234 31.4755 8.0568 30.7281 7.77291 30.5547C6.89477 30.0178 5.45648 29.7557 5.18337 30.0826ZM5.19916 33.5975C5.02751 33.8028 5.1455 34.0825 5.42469 34.1323C6.74613 34.3675 6.94184 34.4297 7.44603 34.7747C7.74582 34.9798 8.40031 35.6068 8.90042 36.1679C10.4629 37.9208 11.3004 38.3852 12.9184 38.3958C14.4915 38.4062 15.5661 37.8028 16.9964 36.106C18.251 34.6178 19.2205 34.116 20.6445 34.218C21.6091 34.287 22.2189 34.6238 23.1695 35.6122C24.8407 37.3498 25.2258 37.6957 25.8016 37.9754C26.632 38.3791 27.5862 38.5267 28.3967 38.3769C29.6541 38.1446 30.0957 37.855 31.7469 36.18C33.0939 34.8137 33.3338 34.6154 33.8912 34.4078C34.3981 34.2192 34.6697 34.1828 35.3033 34.2188C36.5649 34.2903 36.9158 34.503 38.5983 36.2161C40.2225 37.8697 40.6726 38.1653 41.8812 38.3712C42.4395 38.4663 42.7627 38.467 43.2648 38.3743C44.4663 38.1522 44.945 37.8354 46.6004 36.1662C47.947 34.8084 48.1876 34.6108 48.7448 34.4055C49.2497 34.2194 49.5272 34.1828 50.1643 34.218C51.4759 34.2908 51.86 34.5454 53.8304 36.6487C54.2113 37.0551 54.7291 37.5286 54.9811 37.701C55.8843 38.3183 57.0646 38.5638 58.159 38.3619C59.4186 38.1294 59.9859 37.7193 61.9341 35.6327C62.3865 35.1482 62.8963 34.7232 63.2416 34.543C63.7482 34.2785 63.9117 34.2476 64.8013 34.2476C65.6899 34.2476 65.8546 34.2786 66.3584 34.5418C66.6982 34.7192 67.217 35.1507 67.6659 35.6291C69.6182 37.7101 70.0123 38.0103 71.1844 38.3085C72.4315 38.6261 73.7587 38.3438 74.8245 37.5347C75.1736 37.2695 75.8402 36.6211 76.3056 36.0937C77.5936 34.6343 78.3591 34.1945 79.6117 34.1945C80.8737 34.1945 81.2825 34.4322 83.0021 36.1662C84.6575 37.8354 85.1362 38.1522 86.3378 38.3743C86.8398 38.467 87.163 38.4663 87.7213 38.3712C88.9282 38.1655 89.3798 37.8689 91.0042 36.2148C92.5918 34.598 93.0172 34.3199 94.079 34.2041C94.6776 34.1388 94.9097 33.9477 94.7845 33.6232C94.7231 33.4643 94.6142 33.4465 93.9823 33.4914C92.631 33.5875 92.02 33.999 89.8696 36.2616C88.7982 37.3891 88.2234 37.6726 87.0191 37.6677C85.8512 37.6629 85.1998 37.3422 84.2066 36.2826C82.6833 34.6575 82.1817 34.2056 81.5256 33.8675C80.8839 33.5368 80.8107 33.5233 79.6529 33.5212C78.5062 33.5191 78.4154 33.535 77.7657 33.8526C77.0951 34.1805 76.6969 34.5404 74.9988 36.3535C74.1351 37.2757 73.3 37.6739 72.2331 37.6723C71.5721 37.6712 71.3328 37.6194 70.7636 37.3534C70.1949 37.0877 69.8868 36.8267 68.8808 35.7582C67.5343 34.3283 67.1296 34.0152 66.191 33.6765C65.6391 33.4773 65.3944 33.4492 64.5697 33.4897C63.0341 33.5651 62.6538 33.7819 60.8787 35.594C59.0944 37.4154 58.6942 37.6556 57.4246 37.668C56.6789 37.6753 56.5082 37.6384 55.8893 37.3356C55.3312 37.0627 55.0097 36.7949 54.2701 35.9867C52.9536 34.5483 52.5967 34.2363 51.8327 33.8563C51.1912 33.537 51.0934 33.519 50.0022 33.519C48.9226 33.519 48.8045 33.5401 48.144 33.851C47.4326 34.1858 47.0692 34.5061 45.3768 36.2903C44.3647 37.3573 43.7447 37.663 42.5834 37.6677C41.3558 37.6727 40.7718 37.3795 39.6618 36.2015C38.1352 34.5811 37.7123 34.2091 36.9999 33.8606C36.3382 33.537 36.2409 33.519 35.1464 33.519C34.0501 33.519 33.9556 33.5365 33.2871 33.8634C32.7584 34.1221 32.368 34.4316 31.7203 35.1056C29.6471 37.2632 29.4547 37.4091 28.3824 37.6376C27.6261 37.7988 26.5804 37.6075 25.9502 37.1927C25.6907 37.022 24.9722 36.3429 24.3532 35.6836C23.7344 35.0243 23.0345 34.3525 22.7978 34.1908C22.1338 33.7368 21.203 33.467 20.3009 33.467C18.9282 33.467 17.861 33.9956 16.745 35.2283C15.0633 37.0858 14.4236 37.5393 13.2867 37.6805C11.9957 37.8407 11.0246 37.3406 9.61715 35.791C8.06736 34.0844 7.27845 33.581 6.01328 33.491C5.48902 33.4538 5.29833 33.4787 5.19916 33.5975ZM5.37626 36.9852C5.23588 37.03 5.07646 37.204 5.07646 37.3125C5.07646 37.519 5.34592 37.6489 5.95042 37.7339C7.13891 37.9011 7.30973 38.0251 9.56946 40.3599C11.6417 42.5011 14.2043 42.5007 16.2735 40.3589C18.7628 37.7822 18.766 37.7802 20.3452 37.7802C21.3683 37.7802 21.4794 37.8008 21.9665 38.0825C22.2542 38.2487 22.8426 38.7631 23.2741 39.2257C25.1808 41.2696 25.8312 41.7185 27.1479 41.8999C28.0737 42.0273 29.1622 41.81 29.9435 41.3417C30.275 41.1429 31.0301 40.4535 31.7635 39.6798C32.776 38.6116 33.1447 38.2951 33.6819 38.0323C34.302 37.729 34.4095 37.7095 35.2698 37.7436C36.5653 37.7949 36.8433 37.9621 38.5983 39.7448C39.7144 40.8783 40.2029 41.299 40.6518 41.513C41.8225 42.071 43.3125 42.0626 44.494 41.4912C45.0636 41.2157 45.6722 40.6694 47.1694 39.0901C48.1489 38.0568 48.8327 37.728 50 37.7293C51.2972 37.7307 51.6705 37.9495 53.4445 39.7471C55.0869 41.4116 55.5573 41.7178 56.7251 41.8824C58.3483 42.1111 59.5635 41.6296 60.8723 40.2394C63.0368 37.9399 63.2919 37.7802 64.8013 37.7802C66.3305 37.7802 66.5037 37.8894 68.7993 40.3028C70.3923 41.9775 72.1779 42.3881 74.0934 41.5202C74.5631 41.3075 74.9904 40.942 76.1506 39.7612C77.9763 37.9031 78.1869 37.7823 79.6025 37.7811C80.9388 37.78 81.3584 37.9717 82.4031 39.0615C84.0776 40.8083 84.4584 41.1508 85.0612 41.4532C85.9199 41.8839 86.7737 42.0249 87.6754 41.885C88.9052 41.6942 89.3764 41.3909 91.0042 39.742C92.5702 38.1557 93.2058 37.7313 94.0184 37.7292C94.5203 37.7279 94.8222 37.5715 94.8222 37.3125C94.8222 36.9959 94.5261 36.9114 93.7761 37.0142C92.4821 37.1915 92.1053 37.4588 89.8261 39.8168C88.8247 40.8528 88.343 41.0925 87.1656 41.1409C85.7675 41.1982 85.4002 40.9937 83.5774 39.1422C81.6737 37.2085 81.3811 37.0526 79.6531 37.0526C78.5028 37.0526 78.417 37.068 77.7496 37.3943C77.0383 37.7419 76.5614 38.1593 75.1569 39.6633C74.7254 40.1252 74.137 40.6389 73.8494 40.8046C73.3628 41.0849 73.2499 41.1059 72.228 41.1059C71.2106 41.1059 71.0892 41.0837 70.5797 40.8032C70.2202 40.6052 69.5752 40.0217 68.7167 39.1177C67.6263 37.9694 67.2857 37.6773 66.7065 37.3938C66.0404 37.0679 65.9551 37.0526 64.8021 37.0526C63.6485 37.0526 63.5639 37.0678 62.8949 37.3949C62.3113 37.6801 61.9731 37.9701 60.8633 39.1373C59.2161 40.8696 58.7315 41.1579 57.4663 41.1579C55.9496 41.1579 55.5811 40.9263 53.3996 38.602C52.1642 37.2858 50.9087 36.7975 49.3201 37.0154C48.1336 37.1781 47.6505 37.4898 46.0251 39.1408C44.2796 40.9138 43.8473 41.1694 42.5939 41.1694C41.3536 41.1694 40.7413 40.8619 39.6365 39.6841C38.2548 38.2107 37.635 37.6535 37.0816 37.3864C35.9463 36.8384 34.375 36.8374 33.2517 37.3839C32.674 37.665 32.0753 38.2002 30.5852 39.768C29.5541 40.8531 29.0766 41.0923 27.843 41.142C26.9847 41.1765 26.8744 41.1568 26.2647 40.8586C25.7342 40.5991 25.3558 40.2709 24.2786 39.1366C23.1707 37.9699 22.8309 37.6779 22.2504 37.3938C21.5843 37.0679 21.4991 37.0526 20.346 37.0526C19.1983 37.0526 19.1055 37.0691 18.4607 37.3858C17.7131 37.7531 17.2585 38.1516 15.9934 39.5486C14.8736 40.7853 14.3401 41.081 13.1276 41.1369C12.3996 41.1704 12.1288 41.1367 11.6332 40.9511C11.0032 40.7152 10.6317 40.3913 8.93201 38.5962C8.34519 37.9766 7.95533 37.6672 7.44927 37.4196C6.80261 37.1034 5.7181 36.8761 5.37626 36.9852ZM5.24749 40.5839C4.91412 40.9151 5.09425 41.0984 5.85774 41.2043C6.92333 41.3522 7.4227 41.6825 8.99582 43.2806C10.8968 45.2115 11.1892 45.3671 12.9184 45.3671C14.6512 45.3671 14.942 45.2122 16.841 43.2789C18.5992 41.489 19.0612 41.2173 20.3452 41.2173C20.9727 41.2173 21.2493 41.2721 21.7272 41.4918C22.3189 41.7637 22.6068 42.0206 24.3543 43.8359C24.9544 44.4594 25.3588 44.7773 25.8688 45.0267C26.5328 45.3516 26.6197 45.3671 27.7698 45.3671C28.9003 45.3671 29.0136 45.3478 29.5995 45.0553C30.2082 44.7514 30.8559 44.1715 32.3888 42.5576C33.3464 41.5494 34.0178 41.2254 35.1549 41.2224C36.3206 41.2194 36.9753 41.5405 37.9707 42.6031C39.4683 44.2017 40.0532 44.7168 40.7427 45.0443C41.3758 45.345 41.5017 45.3671 42.5732 45.3671C43.6425 45.3671 43.772 45.3444 44.4038 45.0462C45.1047 44.7153 45.5757 44.3024 47.0711 42.7081C48.136 41.5728 48.774 41.2348 49.8759 41.2224C51.259 41.207 51.5529 41.3729 53.3473 43.1824C55.3698 45.2219 55.6374 45.3671 57.3761 45.3671C58.5266 45.3671 58.6121 45.3517 59.2801 45.0253C59.8627 44.7405 60.2024 44.4492 61.3151 43.2798C62.9714 41.5387 63.5059 41.2236 64.8013 41.2236C66.097 41.2236 66.6309 41.5386 68.2894 43.2817C69.9582 45.0356 70.4722 45.3304 71.9818 45.3993C73.7261 45.4788 74.2801 45.1855 76.3598 43.081C78.0304 41.3906 78.343 41.2182 79.7237 41.2246C81.0017 41.2307 81.4583 41.5314 83.5899 43.7723C84.2386 44.4544 84.6087 44.748 85.1572 45.0161C85.8411 45.3504 85.9302 45.3671 87.0276 45.3671C88.0978 45.3671 88.2283 45.3443 88.86 45.0468C89.5507 44.7216 90.1411 44.2058 91.4757 42.7616C92.4009 41.7604 92.8922 41.4577 93.9225 41.2541C94.708 41.099 94.7723 41.0669 94.8026 40.8142C94.8454 40.458 94.5382 40.3759 93.7226 40.5258C92.5249 40.7457 92.067 41.0473 90.4818 42.6607C88.6556 44.5194 88.446 44.6396 87.0293 44.6396C85.6188 44.6396 85.407 44.5179 83.5774 42.6559C82.4099 41.4676 81.9921 41.1109 81.5163 40.8964C80.627 40.4955 79.8155 40.3732 78.9683 40.5127C77.6222 40.7343 77.1596 41.0619 75.0449 43.2914C74.6667 43.6899 74.1019 44.1563 73.7896 44.3278C73.2706 44.6128 73.1363 44.6396 72.228 44.6396C71.3902 44.6396 71.1542 44.6004 70.7236 44.3898C70.2013 44.1344 69.2859 43.2983 68.4675 42.3292C67.9275 41.6898 66.9833 40.9811 66.3335 40.7275C65.3495 40.3435 64.0326 40.3842 63.0361 40.8295C62.474 41.0807 61.627 41.7247 61.3018 42.1484C61.1464 42.3507 60.6293 42.9064 60.1526 43.3833C59.0564 44.4798 58.4902 44.7287 57.2176 44.6728C56.0926 44.6235 55.5718 44.3524 54.5579 43.2887C52.4528 41.08 51.962 40.7313 50.6552 40.5161C49.7822 40.3724 48.8765 40.5208 47.9927 40.9524C47.4724 41.2066 47.0872 41.5404 46.0322 42.6514C45.1737 43.5554 44.5288 44.1388 44.1692 44.3368C43.6646 44.6146 43.5329 44.6396 42.5732 44.6396C41.1604 44.6396 40.9483 44.5183 39.1213 42.6653C37.4954 41.0162 37.0417 40.7195 35.8465 40.5234C35.3059 40.4346 34.948 40.4337 34.4562 40.5199C33.2605 40.7291 32.7769 41.0457 31.1715 42.6701C29.3623 44.5008 29.128 44.6365 27.772 44.6382C26.3488 44.6402 26.0805 44.4884 24.2678 42.6559C22.6627 41.0332 22.2139 40.7366 21.0386 40.5214C20.1619 40.361 19.2294 40.5128 18.3337 40.9621C17.7236 41.2681 17.3606 41.595 15.7427 43.2954C14.734 44.3555 14.2123 44.6227 13.0508 44.6744C12.2614 44.7095 12.1311 44.6855 11.4868 44.386C10.9422 44.1327 10.6179 43.8799 10.0468 43.2627C7.99289 41.0438 7.43441 40.6606 5.99236 40.4816C5.53316 40.4246 5.38776 40.4445 5.24749 40.5839ZM4.20157 50.4771C4.16318 50.5151 4.1318 54.2566 4.1318 58.7915V67.0366H3.29498C2.83473 67.0366 2.45816 67.077 2.45816 67.1263C2.45816 67.2047 2.91998 68.7708 3.76485 71.5576C3.90356 72.0149 4.1228 72.7515 4.2523 73.1945C4.38169 73.6376 4.51485 74 4.54822 74C4.58159 74 4.7319 73.5673 4.88222 73.0386C5.03264 72.5099 5.47228 71.025 5.85921 69.7388C6.24613 68.4527 6.58556 67.3205 6.6136 67.2229C6.65805 67.0673 6.55669 67.0416 5.79038 67.015L4.91632 66.9847L4.88954 58.6962L4.86276 50.4077H4.56705C4.40439 50.4077 4.23985 50.4389 4.20157 50.4771ZM13.2322 58.7222V67.0366H12.3954C11.831 67.0366 11.5586 67.0758 11.5586 67.157C11.5586 67.2233 11.9317 68.5211 12.3878 70.0411C12.8438 71.5612 13.2965 73.0814 13.3938 73.4194C13.513 73.8332 13.5977 73.9861 13.6532 73.8871C13.6985 73.8063 14.1642 72.3137 14.6882 70.5703C15.2121 68.8268 15.6663 67.3205 15.6975 67.2228C15.7472 67.0666 15.6495 67.0416 14.8854 67.0149L14.0167 66.9847L13.99 58.6962L13.9632 50.4077H13.5977H13.2322V58.7222ZM22.3071 58.6962L22.2803 66.9847L21.4292 67.0366L20.5781 67.0886L21.3086 69.531C22.5289 73.6111 22.6594 74.0217 22.7174 73.9641C22.7481 73.9336 23.229 72.3741 23.7859 70.4986L24.7984 67.0886L23.9317 67.0586L23.0649 67.0285V58.7181V50.4077H22.6994H22.3339L22.3071 58.6962ZM31.4075 58.6897L31.3808 66.9847L30.5121 67.0149C29.7485 67.0415 29.6502 67.0667 29.6988 67.2228C29.7918 67.521 30.4364 69.6803 31.0704 71.8175C31.401 72.9321 31.7035 73.88 31.7424 73.9238C31.8018 73.9908 33.8506 67.3459 33.8418 67.1146C33.8403 67.0717 33.4627 67.0366 33.0027 67.0366H32.1665L32.1397 58.7482L32.113 50.4597L31.7736 50.4272L31.4343 50.3946L31.4075 58.6897ZM40.5079 58.6962L40.4812 66.9847L39.6182 67.0148C39.1435 67.0314 38.7568 67.0782 38.7587 67.1187C38.7607 67.1594 38.9946 67.9642 39.2786 68.9074C39.5626 69.8506 40.0199 71.3821 40.295 72.3109C40.57 73.2396 40.8185 73.9995 40.8473 73.9994C40.8884 73.9994 42.7849 67.7658 42.92 67.1866C42.9454 67.0779 42.7522 67.0383 42.0832 67.0149L41.2134 66.9847L41.1969 66.6729C41.1878 66.5014 41.1759 62.7715 41.1707 58.3844L41.1611 50.4077H40.8479H40.5347L40.5079 58.6962ZM49.5991 50.4771C49.5607 50.5151 49.5293 54.2566 49.5293 58.7915V67.0366H48.6925C48.2322 67.0366 47.8549 67.0717 47.8541 67.1146C47.8493 67.3588 49.8917 73.9917 49.9512 73.9249C49.9907 73.8805 50.2935 72.9321 50.6242 71.8175C51.2582 69.6803 51.9027 67.521 51.9957 67.2228C52.0443 67.0667 51.946 67.0415 51.1824 67.0149L50.3138 66.9847L50.287 58.6962L50.2602 50.4077H49.9645C49.8019 50.4077 49.6373 50.4389 49.5991 50.4771ZM58.7343 58.7222V67.0366H57.8516H56.9687L57.1125 67.4783C57.1917 67.7212 57.6152 69.136 58.0536 70.6223C59.1179 74.2303 59.0595 74.0579 59.1573 73.8841C59.2028 73.8034 59.4057 73.1767 59.6083 72.4916C59.8109 71.8064 60.2551 70.3105 60.5955 69.1672L61.2145 67.0886L60.3666 67.0366L59.5188 66.9847L59.4921 58.6962L59.4653 50.4077H59.0998H58.7343V58.7222ZM67.8092 58.6962L67.7824 66.9847L66.9264 67.0147L66.0702 67.0449L66.2276 67.5863C66.8635 69.7738 68.0819 73.7683 68.1519 73.8951C68.2134 74.0067 68.2715 73.919 68.3589 73.5833C68.4257 73.3266 68.8897 71.7603 69.3901 70.1026L70.2996 67.0886L69.4333 67.0586L68.5669 67.0285V58.7181V50.4077H68.2015H67.836L67.8092 58.6962ZM76.9096 58.6962L76.8828 66.9847L76.0142 67.0149C75.2514 67.0415 75.1521 67.0669 75.1995 67.2228C75.9251 69.6129 77.1443 73.7841 77.1443 73.8764C77.1443 73.9444 77.1813 74 77.2264 74C77.2715 74 77.5357 73.2401 77.8135 72.3111C78.0912 71.3823 78.5485 69.8559 78.8297 68.9191C79.111 67.9824 79.341 67.1756 79.341 67.1263C79.341 67.077 78.9644 67.0366 78.5042 67.0366H77.6674V58.7222V50.4077H77.3019H76.9364L76.9096 58.6962ZM86.0007 50.4771C85.9623 50.5151 85.931 54.2566 85.931 58.7915V67.0366H85.0941C84.6339 67.0366 84.2573 67.0715 84.2573 67.114C84.2573 67.2843 86.2953 74 86.3471 74C86.3776 74 86.6036 73.3101 86.8491 72.467C87.0947 71.6239 87.5293 70.1624 87.8149 69.2192C88.1005 68.276 88.363 67.401 88.3981 67.2749C88.4597 67.0531 88.4327 67.0443 87.5887 67.015L86.7155 66.9847L86.6887 58.6962L86.6619 50.4077H86.3662C86.2036 50.4077 86.039 50.4389 86.0007 50.4771ZM95.1011 50.4771C95.0628 50.5151 95.0314 54.2566 95.0314 58.7915V67.0366H94.1946C93.6192 67.0366 93.3577 67.0751 93.3577 67.1598C93.3577 67.2276 93.7534 68.5955 94.2371 70.1998C94.7208 71.804 95.1713 73.3213 95.2385 73.5715C95.3055 73.8218 95.3975 73.9854 95.4428 73.9353C95.4881 73.8852 95.9617 72.3709 96.4952 70.5703C97.0288 68.7697 97.4868 67.2399 97.5131 67.1709C97.5475 67.0804 97.317 67.0368 96.6884 67.015L95.8159 66.9847L95.7891 58.6962L95.7623 50.4077H95.4666C95.304 50.4077 95.1394 50.4389 95.1011 50.4771Z" fill="#C0828A"/>
</svg>
