<svg width="164" height="55" viewBox="0 0 164 55" fill="none" xmlns="http://www.w3.org/2000/svg">
<path d="M61.7078 47.0592C60.6377 47.0592 59.6799 46.5878 58.8344 45.6415C57.9888 44.6951 57.5643 43.3891 57.5643 41.7234C57.5643 40.8888 57.6695 39.9354 57.8765 38.8634C58.0835 37.7913 58.3151 36.6913 58.5677 35.5703C58.8203 34.4494 59.0484 33.3913 59.2589 32.3996C59.4659 31.4078 59.5711 30.5732 59.5711 29.8992C59.5711 29.3545 59.4519 28.9145 59.2133 28.5757C58.9747 28.2405 58.6624 28.0694 58.2765 28.0694C57.7713 28.0694 57.2205 28.3907 56.6275 29.0297L56.3609 28.8376C56.3293 28.3243 56.4346 27.7167 56.6731 27.0113C56.9117 26.3059 57.2976 25.6249 57.8309 24.9684C58.3642 24.3119 59.0624 23.7602 59.9255 23.3097C60.7851 22.8627 61.8095 22.6357 62.9989 22.6357C64.3356 22.6357 65.3391 23.1421 66.0057 24.1513C66.6723 25.1605 67.0091 26.3723 67.0091 27.7796C67.0091 27.9402 67.0091 28.1078 67.0091 28.2859C67.0091 28.464 66.9951 28.6316 66.9635 28.7922C67.5284 27.8005 68.1879 26.8367 68.9458 25.9078C69.7036 24.9789 70.5632 24.2002 71.528 23.5751C72.4928 22.95 73.5384 22.6392 74.6681 22.6392C76.1241 22.6392 77.131 23.1456 77.6959 24.1548C78.2608 25.164 78.5414 26.3094 78.5414 27.591C78.5414 27.8494 78.5344 28.0973 78.5204 28.3348C78.5064 28.5757 78.4818 28.8097 78.4537 29.0332C79.0782 28.0415 79.7694 27.0532 80.5237 26.0754C81.2816 25.0976 82.1482 24.2805 83.1305 23.624C84.1094 22.9675 85.2391 22.6392 86.5162 22.6392C88.0915 22.6392 89.1651 23.1351 89.744 24.1303C90.3229 25.1256 90.6141 26.2919 90.6141 27.6399C90.6141 28.8272 90.4808 30.1786 90.2141 31.7011C89.9475 33.2237 89.6808 34.7218 89.4107 36.1954C89.144 37.6691 89.0107 38.9192 89.0107 39.9459C89.0107 40.5535 89.0914 41.0529 89.2563 41.437C89.4177 41.8211 89.6949 42.0132 90.0808 42.0132C90.4071 42.0132 90.7123 41.9084 90.993 41.7024C91.2737 41.4929 91.4772 41.2449 91.593 40.9586L91.9508 41.1018C91.9508 42.2891 91.6386 43.3297 91.0141 44.2272C90.3896 45.1246 89.6037 45.823 88.6529 46.3189C87.7021 46.8148 86.7513 47.0627 85.8005 47.0627C84.6427 47.0627 83.6252 46.6472 82.7481 45.8126C81.871 44.978 81.4324 43.6021 81.4324 41.678C81.4324 40.4942 81.5728 39.2091 81.8569 37.8332C82.1376 36.4573 82.4218 35.1164 82.7025 33.8208C82.9832 32.5218 83.127 31.4567 83.127 30.6256C83.127 29.4418 82.7411 28.8481 81.9692 28.8481C81.4044 28.8481 80.8465 29.0961 80.2992 29.5919C79.7484 30.0878 79.2607 30.7443 78.8291 31.5615C78.3976 32.3786 78.0503 33.2376 77.7836 34.1316C77.517 35.0291 77.3836 35.8951 77.3836 36.7262C77.3836 37.4945 77.4643 38.3361 77.6292 39.251C77.7906 40.1624 77.8748 41.0389 77.8748 41.87C77.8748 43.5357 77.4433 44.8173 76.5837 45.7148C75.7206 46.6122 74.7137 47.0592 73.5559 47.0592C72.4858 47.0592 71.528 46.6751 70.6825 45.9069C69.8369 45.1386 69.4124 43.9827 69.4124 42.4462C69.4124 41.7408 69.5001 40.8853 69.679 39.8761C69.858 38.8669 70.058 37.8088 70.279 36.7053C70.5 35.5983 70.7035 34.5332 70.8789 33.51C71.0579 32.4834 71.1456 31.5859 71.1456 30.8176C71.1456 30.21 71.0649 29.7281 70.9 29.3754C70.7351 29.0227 70.4158 28.8481 69.9422 28.8481C69.258 28.8481 68.6054 29.2183 67.9809 29.9551C67.3564 30.6919 66.8231 31.5824 66.3776 32.623C65.932 33.6637 65.6338 34.6659 65.4864 35.6262C65.4548 35.8497 65.4268 36.0907 65.3987 36.3491C65.3987 37.3443 65.504 38.2488 65.711 39.0659C65.918 39.883 66.0232 40.7246 66.0232 41.5907C66.0232 43.1621 65.5847 44.4681 64.7075 45.5088C63.8374 46.5389 62.8375 47.0592 61.7078 47.0592Z" fill="#A7626C"/>
<path d="M99.9256 47.0594C98.5888 47.0594 97.4696 46.4657 96.5609 45.2819C95.6558 44.0981 95.2032 42.5092 95.2032 40.5222C95.2032 39.4327 95.3225 38.2629 95.561 37.0127C95.7996 35.7626 96.0347 34.5787 96.2732 33.4543C96.4802 32.6197 96.6522 31.8445 96.7855 31.1216C96.9188 30.3987 96.9855 29.8156 96.9855 29.3686C96.9855 28.7924 96.8732 28.3768 96.6522 28.1184C96.4311 27.8635 96.168 27.7343 95.8733 27.7343C95.5751 27.7343 95.2804 27.8391 94.9821 28.0451C94.6839 28.2546 94.4488 28.5654 94.2699 28.981L93.9121 28.8378C93.9121 27.5248 94.2103 26.4038 94.8032 25.4714C95.3961 24.5426 96.154 23.8372 97.0767 23.3553C97.9959 22.8733 98.9327 22.6324 99.8835 22.6324C100.656 22.6324 101.399 22.8 102.112 23.1387C102.824 23.474 103.41 23.9978 103.869 24.6997C104.329 25.4051 104.56 26.2851 104.56 27.3432C104.56 27.9857 104.48 28.754 104.315 29.6514C104.15 30.5489 103.964 31.4778 103.757 32.4381C103.55 33.4333 103.35 34.4321 103.157 35.4413C102.964 36.4505 102.866 37.341 102.866 38.1092C102.866 38.8146 102.971 39.3908 103.178 39.8378C103.385 40.2883 103.697 40.5118 104.115 40.5118C104.887 40.5118 105.757 39.7435 106.722 38.2035C107.687 36.6635 108.465 34.5997 109.062 32.0016C109.181 31.4883 109.283 30.9435 109.374 30.3673C109.462 29.7911 109.507 29.1975 109.507 28.5899C109.507 28.108 109.476 27.6226 109.42 27.1232C109.36 26.6273 109.272 26.121 109.153 25.6076V25.2724C109.627 24.4064 110.244 23.7499 111.002 23.3029C111.76 22.8559 112.525 22.6289 113.297 22.6289C114.335 22.6289 115.272 23.013 116.103 23.7813C116.935 24.5495 117.349 25.674 117.349 27.1476C117.349 28.0137 117.201 29.0159 116.903 30.1508C116.605 31.2892 116.279 32.466 115.924 33.6848C115.567 34.8721 115.24 36.0384 114.946 37.1943C114.647 38.3467 114.5 39.3734 114.5 40.2708C114.5 41.5838 114.932 42.2403 115.791 42.2403C116.03 42.2403 116.317 42.167 116.661 42.0238C117.002 41.8806 117.321 41.5838 117.619 41.1334L117.931 41.2276C117.931 42.38 117.64 43.3997 117.061 44.2797C116.482 45.1632 115.745 45.8407 114.858 46.3226C113.967 46.8045 113.047 47.0454 112.097 47.0454C110.879 47.0454 109.788 46.5635 108.823 45.6032C107.858 44.6429 107.374 43.0714 107.374 40.8924V40.7946C106.157 43.04 104.894 44.6394 103.589 45.5997C102.273 46.581 101.055 47.0594 99.9256 47.0594Z" fill="#A7626C"/>
<path d="M125.449 47.0586C124.379 47.0586 123.428 46.5872 122.597 45.6408C121.765 44.6945 121.351 43.357 121.351 41.6284C121.351 40.7938 121.439 39.851 121.618 38.7929C121.797 37.7348 122.004 36.6522 122.242 35.5487C122.481 34.4418 122.688 33.4011 122.867 32.4233C123.046 31.4456 123.133 30.6389 123.133 29.9964C123.133 29.3224 123.021 28.7881 122.8 28.3865C122.576 27.9849 122.288 27.7859 121.93 27.7859C121.365 27.7859 120.786 28.2014 120.193 29.036L119.927 28.844C119.895 28.3306 120 27.723 120.239 27.0176C120.477 26.3122 120.846 25.6313 121.351 24.9748C121.856 24.3183 122.502 23.7665 123.288 23.316C124.074 22.8691 125.003 22.6421 126.07 22.6421C127.645 22.6421 128.785 23.131 129.501 24.1087C130.213 25.0865 130.571 26.2633 130.571 27.6427C130.571 27.8662 130.564 28.1002 130.55 28.3411C130.536 28.5821 130.512 28.816 130.484 29.0395C131.554 26.9583 132.673 25.3624 133.848 24.2554C135.02 23.1484 136.111 22.5967 137.122 22.5967C138.072 22.5967 138.771 22.9983 139.216 23.798C139.662 24.5976 139.883 25.5614 139.883 26.6824C139.883 27.7091 139.697 28.7497 139.325 29.8078C138.953 30.8659 138.406 31.7389 137.676 32.4268C136.95 33.1148 136.066 33.443 135.027 33.4116L134.848 33.3138C134.817 32.4792 134.564 31.8227 134.09 31.3443C133.613 30.8624 133.08 30.6249 132.487 30.6249C131.683 30.6249 130.936 31.0579 130.238 31.924C129.54 32.79 129.192 34.0402 129.192 35.6745C129.192 36.6697 129.298 37.7418 129.505 38.8941C129.712 40.0465 129.817 41.0243 129.817 41.8275C129.817 42.7878 129.61 43.6713 129.192 44.471C128.775 45.2706 128.242 45.9062 127.589 46.3706C126.933 46.8281 126.221 47.0586 125.449 47.0586Z" fill="#A7626C"/>
<path d="M147.895 47.2998C146.053 47.2998 144.523 47.0274 143.306 46.4826C142.089 45.9379 141.183 45.2395 140.59 44.3909C139.998 43.5423 139.699 42.6833 139.699 41.8207C139.699 40.602 140.205 39.523 141.215 38.5766C142.225 37.6303 143.59 37.1588 145.313 37.1588C145.313 38.7931 145.506 40.0991 145.892 41.0769C146.278 42.0547 146.776 42.7531 147.383 43.1687C147.99 43.5842 148.579 43.7937 149.141 43.7937C149.825 43.7937 150.393 43.5772 150.856 43.1442C151.316 42.7112 151.547 42.1769 151.547 41.5344C151.547 40.6369 151.116 39.8512 150.256 39.1772C149.393 38.5033 148.281 37.7525 146.916 36.9179C146.232 36.4709 145.492 35.9506 144.688 35.3569C143.885 34.7633 143.204 34.0439 142.639 33.1953C142.075 32.3468 141.794 31.3306 141.794 30.1433C141.794 28.8931 142.127 27.7896 142.797 26.8258C143.464 25.8655 144.348 25.0553 145.446 24.3988C146.544 23.7423 147.734 23.2464 149.011 22.9077C150.288 22.5725 151.533 22.4014 152.751 22.4014C155.038 22.4014 156.761 22.8972 157.919 23.8925C159.077 24.8877 159.656 25.9423 159.656 27.0633C159.656 28.0236 159.21 28.8896 158.319 29.6579C157.428 30.4261 156.063 30.8103 154.221 30.8103C154.249 29.176 153.937 27.9817 153.284 27.2274C152.632 26.4731 151.933 26.0995 151.19 26.0995C150.656 26.0995 150.211 26.2776 149.853 26.6268C149.495 26.9795 149.32 27.4928 149.32 28.1633C149.32 28.9315 149.548 29.5985 150.011 30.1572C150.47 30.7195 151.049 31.2153 151.747 31.6483C152.446 32.0814 153.165 32.4899 153.909 32.8741C154.919 33.3874 155.87 33.9322 156.761 34.5084C157.652 35.0845 158.378 35.741 158.943 36.4779C159.508 37.2147 159.789 38.1122 159.789 39.1703C159.789 40.6125 159.245 41.9499 158.164 43.1826C157.08 44.4153 155.631 45.4106 153.821 46.1614C152.011 46.9226 150.035 47.2998 147.895 47.2998Z" fill="#A7626C"/>
<path d="M42.955 47.2024C40.7867 47.2024 38.9904 46.731 37.566 45.7847C36.1415 44.8383 35.0714 43.5917 34.3592 42.0342C33.647 40.4802 33.2891 38.8075 33.2891 37.0126C33.2891 35.3155 33.5944 33.6078 34.2013 31.8932C34.8083 30.1786 35.6995 28.6177 36.8748 27.2069C38.0466 25.7961 39.4746 24.6612 41.1516 23.7951C42.8287 22.9291 44.7232 22.4961 46.8318 22.4961C49.4456 22.4961 51.3542 23.1282 52.5541 24.3958C53.7576 25.6634 54.3575 27.1929 54.3575 28.9843C54.3575 30.5209 53.9786 31.9421 53.2208 33.2377C52.4629 34.5367 51.463 35.5774 50.214 36.3631C48.9685 37.1488 47.6002 37.5399 46.1161 37.5399C45.3442 37.5399 44.5583 37.4107 43.7549 37.1558C42.9515 36.9009 42.1656 36.4993 41.3937 35.9545C41.5411 37.9415 42.0779 39.3837 42.9971 40.2812C43.9163 41.1786 45.0144 41.6256 46.2915 41.6256C47.1827 41.6256 48.0738 41.4405 48.965 41.0739C49.8561 40.7072 50.6806 40.2253 51.4385 39.6316C52.1963 39.038 52.7822 38.4059 53.1962 37.732L53.5085 37.9729C53.5085 39.6386 53.1892 41.0564 52.5506 42.2263C51.9121 43.3961 51.0736 44.3494 50.0351 45.0863C48.9966 45.8231 47.8598 46.3609 46.6283 46.6961C45.4004 47.0348 44.1724 47.2024 42.955 47.2024ZM43.9794 34.2259C44.9302 34.2259 45.7021 33.9291 46.295 33.3355C46.888 32.7418 47.3335 32.0469 47.6318 31.2437C47.93 30.444 48.0773 29.7386 48.0773 29.1275C48.0773 28.3907 47.8844 27.7726 47.4984 27.2767C47.1125 26.7809 46.5792 26.5329 45.8951 26.5329C45.3618 26.5329 44.7724 26.7424 44.1373 27.158C43.4988 27.5736 42.9269 28.2859 42.4217 29.2986C41.9165 30.3078 41.5902 31.7117 41.4428 33.5031C42.3936 33.985 43.2392 34.2259 43.9794 34.2259Z" fill="#A7626C"/>
<path d="M8.08008 12.9831C8.31514 12.7841 8.49758 12.6234 8.68704 12.4733C9.94307 11.4745 11.0868 10.392 11.7534 8.87994C12.3393 7.54946 12.5534 6.212 12.0657 4.81518C12.006 4.64756 11.9604 4.48343 12.2095 4.43105C13.7006 4.12724 15.1847 3.89676 16.6513 4.54629C18.1213 5.19581 18.6651 6.64152 18.0125 8.17105C17.4617 9.4701 16.4443 10.3291 15.3075 11.073C13.2656 12.4069 11.0517 13.1891 8.57828 13.1018C8.48355 13.0984 8.38531 13.0949 8.29058 13.0844C8.25199 13.0774 8.21691 13.0495 8.08008 12.9831Z" fill="#A7626C"/>
<path d="M9.72862 5.82129C9.8865 7.10986 9.56021 8.22732 8.80238 9.22954C7.87965 10.4413 6.66923 11.3073 5.35355 12.0407C5.32198 12.0581 5.27637 12.0511 5.23777 12.0546C4.74308 9.91748 7.20252 6.48129 9.72862 5.82129Z" fill="#A7626C"/>
<path d="M16.0485 16.353C17.2063 16.4123 21.4551 15.5498 23.1146 14.2123C24.2513 13.2974 25.0408 12.1799 24.6232 10.6155C24.0408 8.43995 22.4375 7.11646 20.5815 5.9082C20.6025 6.10376 20.606 6.22249 20.6306 6.33773C20.8937 7.59487 20.6411 8.74725 19.9745 9.83677C18.9851 11.4571 17.5888 12.6409 15.9293 13.4965C15.217 13.8631 13.8557 14.1739 13.7119 14.4358C13.5681 14.6942 14.8907 16.2901 16.0485 16.353Z" fill="#A7626C"/>
<path d="M16.8129 20.2985C17.0024 20.3404 19.6969 21.4893 21.2967 21.5382C22.9492 21.5871 24.5491 21.3042 26.0086 20.4556C27.0892 19.8271 27.7594 18.9506 27.8295 17.641C27.8892 16.548 27.7488 15.4934 27.4331 14.4563C27.3804 14.2852 27.3103 14.1175 27.2471 13.9395C27.1805 13.9779 27.1489 13.9883 27.1348 14.0058C26.2788 15.4585 24.9947 16.4083 23.486 17.0858C21.4266 18.0112 19.2478 17.8436 17.0059 17.9658C16.7813 17.9763 16.5568 17.9937 16.3323 18.0112C16.2866 19.0029 16.6235 20.2566 16.8129 20.2985Z" fill="#A7626C"/>
<path d="M28.9128 39.4633C28.4532 39.8544 27.969 40.0465 27.4638 40.0465C27.0042 40.0465 26.5867 39.8055 26.2218 39.3236C25.8534 38.8417 25.6709 37.9617 25.6709 36.6767C25.6709 35.4405 25.8534 33.8586 26.2218 31.9344C26.5902 30.0103 27.0392 27.9011 27.569 25.6103C27.8076 24.5836 28.0427 23.5465 28.2742 22.5059C28.2742 22.5059 26.2393 24.2798 22.0467 24.2798C17.8541 24.2798 16.4296 22.5059 16.4296 22.5059C16.391 22.67 16.356 22.8341 16.3139 22.9982C15.6437 25.7954 15.0473 28.4878 14.5175 31.0754C13.9877 33.6665 13.7246 35.9224 13.7246 37.8465C13.7246 40.0011 14.093 41.7646 14.8298 43.137C15.5665 44.5128 16.5208 45.5081 17.6962 46.1262C18.8715 46.7443 20.0784 47.0551 21.3204 47.0551C22.794 47.0551 24.2079 46.6884 25.5657 45.9551C26.9235 45.2217 28.0497 44.216 28.9514 42.9309C29.8495 41.6494 30.3197 40.1827 30.3653 38.5309L29.8109 38.3913C29.6741 38.7195 29.3724 39.0757 28.9128 39.4633Z" fill="#A7626C"/>
</svg>
