<svg width="579" height="358" viewBox="0 0 579 358" fill="none" xmlns="http://www.w3.org/2000/svg">
<g filter="url(#filter0_d_212_339)">
<path fill-rule="evenodd" clip-rule="evenodd" d="M4 125.559V251.118H10.496H16.992L17.246 137.316L17.5 23.513L80.555 137.066L143.609 250.619L150.805 250.913C154.762 251.074 158 250.996 158 250.738C158 250.481 156.588 246.752 154.861 242.451C147.839 224.958 144.489 199.267 144.526 163.186C144.548 140.463 144.798 136.57 146.83 127.213C157.27 79.1353 183.529 39.6066 217.744 20.4603L224.987 16.4074L225.244 90.046L225.5 163.686L233 156.639C241.105 149.025 249.44 143.026 257.75 138.827L263 136.173V68.2417V0.310762L244.75 0.327749L226.5 0.343736L218.179 4.80831C173.86 28.5851 143.273 71.2823 132.55 124.342C131.147 131.28 130 138.111 130 139.521C130 140.931 129.662 142.288 129.25 142.538C128.838 142.788 110.53 111.114 88.566 72.1507L48.633 1.31L40.566 1.306C36.13 1.304 26.088 1.00923 18.25 0.6515L4 0V125.559ZM281.75 1.0382C279.688 1.25404 278 1.64574 278 1.90954C278 2.96573 283.226 12.4744 304.305 49.7728C327.62 91.0282 350 131.168 350 131.729C350 131.915 347.413 132.336 344.25 132.664C341.087 132.994 334.225 133.732 329 134.305C279.735 139.708 242.295 160.841 218.524 196.66C207.292 213.585 201.99 227.31 201.247 241.376L200.733 251.118H227.366C249.956 251.118 254 250.899 254 249.671C254 244.344 257.426 223.894 259.538 216.609C264.606 199.134 271.711 186.69 283.946 173.86C300.856 156.126 325.393 145.113 350.453 144.008L357.405 143.701L360.953 150.114C362.904 153.641 376.465 177.698 391.089 203.573L417.678 250.619L445.523 250.885C462.003 251.043 473.752 250.767 474.31 250.209C474.9 249.62 448.588 202.698 403.978 124.789L332.704 0.310762L309.102 0.478633C296.121 0.571562 283.813 0.823369 281.75 1.0382ZM466.5 2.75389C437.455 10.3201 420.138 22.8964 410.016 43.7774C404.944 54.2384 403.625 61.4948 404.25 75.4851C405.146 95.5328 410.286 106.343 427 123.33C439.665 136.203 448.835 142.383 479.5 158.712C506.953 173.332 515.896 179.201 524.32 188.123C533.674 198.031 536.184 203.388 536.747 214.646C537.192 223.55 537.156 223.719 533.154 231.633C530.93 236.03 526.8 242.213 523.976 245.373L518.84 251.118H534.787H550.733L556.882 243.374C563.707 234.778 569.93 223.516 572.478 215.146C575.005 206.847 575.665 186.259 573.655 178.449C569.066 160.619 553.938 140.906 535.5 128.73C531.1 125.826 519.625 119.29 510 114.208C464.251 90.053 456.367 84.8869 447.272 73.1069C440.28 64.0519 438.701 59.4035 439.184 49.2992C439.53 42.0687 440.061 39.8524 442.399 35.8665C452.534 18.5848 473.402 10.44 500.36 13.2428C514.028 14.6638 529.22 19.4711 540.347 25.8961C544.663 28.3882 548.778 30.2028 549.491 29.9301C550.205 29.6563 552.062 27.7647 553.618 25.7263L556.447 22.0191L552.629 18.7216C547.231 14.0592 534.754 7.80102 525.973 5.3509C505.795 -0.278786 482.111 -1.31299 466.5 2.75389ZM5 316.568V348.044H7.353C9.563 348.044 9.746 347.578 10.353 340.399C10.709 336.194 11 324.238 11 313.83V294.907L33.25 321.471L55.5 348.035L64 348.025L72.5 348.015L94 321.885L115.5 295.756L116.112 320.152C116.449 333.569 116.787 345.334 116.862 346.296C116.981 347.803 118.1 348.044 125 348.044H133V316.568V285.092H124.58H116.161L92.905 312.821C80.114 328.071 69.455 340.775 69.219 341.05C68.551 341.825 59.168 331.318 39 307.209L20.5 285.095L12.75 285.094L5 285.092V316.568ZM179.531 297.793C174.64 304.822 165.095 318.542 158.319 328.28C151.544 338.02 146 346.451 146 347.016C146 347.582 146.89 348.044 147.977 348.044C150.437 348.044 154.07 343.484 172.598 317.137C191.952 289.617 189.694 292.306 191.489 294.644C193.494 297.256 211.273 322.861 213.463 326.293L215.206 329.022L209.585 327.089C206.493 326.027 200.075 324.385 195.322 323.442L186.681 321.727L184.345 324.643C183.061 326.248 182.008 328.054 182.005 328.658C182.002 329.34 185.689 329.982 191.75 330.353C207.715 331.33 219.723 336.128 225.99 344.034L229.168 348.044H237.084C242.211 348.044 245 347.653 245 346.937C245 345.838 209.036 294.027 204.739 288.934C202.84 286.684 201.431 286.185 195.462 285.647L188.423 285.013L179.531 297.793ZM255.75 285.781C254.787 286.033 254.003 286.542 254.006 286.914C254.009 287.286 260.647 292.276 268.756 298.003C292.706 314.918 294.941 316.544 294.949 317.068C294.953 317.343 286.103 323.863 275.283 331.557C264.463 339.251 255.435 346.109 255.222 346.795C254.971 347.602 255.888 348.044 257.807 348.044C260.9 348.044 268.434 343.436 289.449 328.688C295.471 324.461 300.897 321.195 301.505 321.429C302.114 321.661 311.01 327.746 321.274 334.948L339.935 348.044H349.968C355.485 348.044 359.993 347.707 359.984 347.295C359.975 346.882 350.75 340.113 339.484 332.253C328.218 324.392 319 317.593 319 317.145C319 316.697 326.814 310.847 336.363 304.146C345.913 297.444 355.251 290.677 357.113 289.109C360.143 286.557 360.304 286.18 358.644 285.527C355.83 284.421 349.502 287.929 330.321 301.233L313.085 313.187L307.293 309.486C304.107 307.449 294.882 301.128 286.794 295.439L272.087 285.092L264.794 285.208C260.782 285.272 256.713 285.53 255.75 285.781ZM412.373 292.337C381.103 337.31 375 346.25 375 347.08C375 347.61 375.878 348.044 376.95 348.044C379.549 348.044 383.103 343.63 401.84 317.119C410.56 304.781 418.161 294.531 418.732 294.341C419.999 293.92 444 326.317 444 328.45C444 328.726 441.517 328.097 438.482 327.054C435.447 326.011 429.075 324.385 424.322 323.442L415.681 321.727L413.345 324.643C412.061 326.248 411.008 328.06 411.005 328.672C411.002 329.365 414.668 330.046 420.75 330.48C438.579 331.751 447.755 335.292 454.683 343.573L458.424 348.044H466.212C471.06 348.044 474 347.641 474 346.979C474 346.392 464.471 332.228 452.823 315.503L431.647 285.092H424.528H417.41L412.373 292.337ZM507.156 286.627C494.028 289.474 487 294.924 487 302.256C487 305.461 487.659 306.933 490.25 309.514C495.262 314.507 501.78 316.634 536.198 324.511C553.205 328.404 558.518 332.891 552.604 338.368C548.047 342.587 539.027 344.553 524.5 344.492C513.057 344.443 510.569 344.114 503.729 341.744C494.263 338.464 494 338.455 494 341.435C494 346.396 505.487 349.035 527 349.016C550.251 348.995 564.433 345.79 571.25 339.015C574.521 335.765 575 334.69 575 330.599C575 321.697 568.99 318.46 540.5 312.014C520.187 307.417 514.561 305.762 510.25 303.11C506.542 300.828 505.933 297.359 508.787 294.778C512.975 290.99 517.533 290.089 532.493 290.089H547.05L554 293.586C557.823 295.509 561.108 297.083 561.302 297.083C561.495 297.083 561.452 295.708 561.205 294.029C560.657 290.295 558.292 288.658 550.54 286.642C542.904 284.657 516.284 284.648 507.156 286.627Z" fill="white"/>
</g>
<defs>
<filter id="filter0_d_212_339" x="0" y="0" width="579" height="357.017" filterUnits="userSpaceOnUse" color-interpolation-filters="sRGB">
<feFlood flood-opacity="0" result="BackgroundImageFix"/>
<feColorMatrix in="SourceAlpha" type="matrix" values="0 0 0 0 0 0 0 0 0 0 0 0 0 0 0 0 0 0 127 0" result="hardAlpha"/>
<feOffset dy="4"/>
<feGaussianBlur stdDeviation="2"/>
<feComposite in2="hardAlpha" operator="out"/>
<feColorMatrix type="matrix" values="0 0 0 0 0 0 0 0 0 0 0 0 0 0 0 0 0 0 0.25 0"/>
<feBlend mode="normal" in2="BackgroundImageFix" result="effect1_dropShadow_212_339"/>
<feBlend mode="normal" in="SourceGraphic" in2="effect1_dropShadow_212_339" result="shape"/>
</filter>
</defs>
</svg>
