<svg width="164" height="55" viewBox="0 0 164 55" fill="none" xmlns="http://www.w3.org/2000/svg">
<path d="M61.707 47.0592C60.6369 47.0592 59.6791 46.5878 58.8336 45.6415C57.988 44.6951 57.5635 43.3891 57.5635 41.7234C57.5635 40.8888 57.6687 39.9354 57.8757 38.8634C58.0827 37.7913 58.3143 36.6913 58.5669 35.5703C58.8195 34.4494 59.0476 33.3913 59.2581 32.3996C59.4651 31.4078 59.5703 30.5732 59.5703 29.8992C59.5703 29.3545 59.4511 28.9145 59.2125 28.5757C58.9739 28.2405 58.6616 28.0694 58.2757 28.0694C57.7705 28.0694 57.2197 28.3907 56.6267 29.0297L56.3601 28.8376C56.3285 28.3243 56.4338 27.7167 56.6723 27.0113C56.9109 26.3059 57.2968 25.6249 57.8301 24.9684C58.3634 24.3119 59.0616 23.7602 59.9247 23.3097C60.7843 22.8627 61.8087 22.6357 62.9981 22.6357C64.3348 22.6357 65.3383 23.1421 66.0049 24.1513C66.6715 25.1605 67.0083 26.3723 67.0083 27.7796C67.0083 27.9402 67.0083 28.1078 67.0083 28.2859C67.0083 28.464 66.9943 28.6316 66.9627 28.7922C67.5276 27.8005 68.1871 26.8367 68.945 25.9078C69.7028 24.9789 70.5624 24.2002 71.5272 23.5751C72.492 22.95 73.5376 22.6392 74.6673 22.6392C76.1233 22.6392 77.1302 23.1456 77.6951 24.1548C78.26 25.164 78.5406 26.3094 78.5406 27.591C78.5406 27.8494 78.5336 28.0973 78.5196 28.3348C78.5056 28.5757 78.481 28.8097 78.4529 29.0332C79.0774 28.0415 79.7686 27.0532 80.5229 26.0754C81.2808 25.0976 82.1474 24.2805 83.1297 23.624C84.1086 22.9675 85.2383 22.6392 86.5154 22.6392C88.0907 22.6392 89.1643 23.1351 89.7432 24.1303C90.3221 25.1256 90.6133 26.2919 90.6133 27.6399C90.6133 28.8272 90.48 30.1786 90.2133 31.7011C89.9467 33.2237 89.68 34.7218 89.4099 36.1954C89.1432 37.6691 89.0099 38.9192 89.0099 39.9459C89.0099 40.5535 89.0906 41.0529 89.2555 41.437C89.4169 41.8211 89.6941 42.0132 90.08 42.0132C90.4063 42.0132 90.7115 41.9084 90.9922 41.7024C91.2729 41.4929 91.4764 41.2449 91.5922 40.9586L91.95 41.1018C91.95 42.2891 91.6378 43.3297 91.0133 44.2272C90.3888 45.1246 89.6029 45.823 88.6521 46.3189C87.7013 46.8148 86.7505 47.0627 85.7997 47.0627C84.6419 47.0627 83.6244 46.6472 82.7473 45.8126C81.8702 44.978 81.4316 43.6021 81.4316 41.678C81.4316 40.4942 81.572 39.2091 81.8561 37.8332C82.1368 36.4573 82.421 35.1164 82.7017 33.8208C82.9824 32.5218 83.1262 31.4567 83.1262 30.6256C83.1262 29.4418 82.7403 28.8481 81.9684 28.8481C81.4036 28.8481 80.8457 29.0961 80.2984 29.5919C79.7476 30.0878 79.2599 30.7443 78.8283 31.5615C78.3968 32.3786 78.0495 33.2376 77.7828 34.1316C77.5162 35.0291 77.3828 35.8951 77.3828 36.7262C77.3828 37.4945 77.4635 38.3361 77.6284 39.251C77.7898 40.1624 77.874 41.0389 77.874 41.87C77.874 43.5357 77.4425 44.8173 76.5829 45.7148C75.7198 46.6122 74.7129 47.0592 73.5551 47.0592C72.485 47.0592 71.5272 46.6751 70.6817 45.9069C69.8361 45.1386 69.4116 43.9827 69.4116 42.4462C69.4116 41.7408 69.4993 40.8853 69.6782 39.8761C69.8572 38.8669 70.0572 37.8088 70.2782 36.7053C70.4992 35.5983 70.7027 34.5332 70.8781 33.51C71.0571 32.4834 71.1448 31.5859 71.1448 30.8176C71.1448 30.21 71.0641 29.7281 70.8992 29.3754C70.7343 29.0227 70.415 28.8481 69.9414 28.8481C69.2572 28.8481 68.6046 29.2183 67.9801 29.9551C67.3556 30.6919 66.8223 31.5824 66.3768 32.623C65.9312 33.6637 65.633 34.6659 65.4856 35.6262C65.454 35.8497 65.426 36.0907 65.3979 36.3491C65.3979 37.3443 65.5032 38.2488 65.7102 39.0659C65.9172 39.883 66.0224 40.7246 66.0224 41.5907C66.0224 43.1621 65.5839 44.4681 64.7067 45.5088C63.8366 46.5389 62.8367 47.0592 61.707 47.0592Z" fill="#fff"/>
<path d="M99.9248 47.0594C98.588 47.0594 97.4688 46.4657 96.5601 45.2819C95.655 44.0981 95.2024 42.5092 95.2024 40.5222C95.2024 39.4327 95.3217 38.2629 95.5602 37.0127C95.7988 35.7626 96.0339 34.5787 96.2724 33.4543C96.4794 32.6197 96.6514 31.8445 96.7847 31.1216C96.918 30.3987 96.9847 29.8156 96.9847 29.3686C96.9847 28.7924 96.8724 28.3768 96.6514 28.1184C96.4303 27.8635 96.1672 27.7343 95.8725 27.7343C95.5743 27.7343 95.2796 27.8391 94.9813 28.0451C94.6831 28.2546 94.448 28.5654 94.2691 28.981L93.9113 28.8378C93.9113 27.5248 94.2095 26.4038 94.8024 25.4714C95.3953 24.5426 96.1532 23.8372 97.0759 23.3553C97.9951 22.8733 98.9319 22.6324 99.8827 22.6324C100.655 22.6324 101.398 22.8 102.111 23.1387C102.823 23.474 103.409 23.9978 103.868 24.6997C104.328 25.4051 104.559 26.2851 104.559 27.3432C104.559 27.9857 104.479 28.754 104.314 29.6514C104.149 30.5489 103.963 31.4778 103.756 32.4381C103.549 33.4333 103.349 34.4321 103.156 35.4413C102.963 36.4505 102.865 37.341 102.865 38.1092C102.865 38.8146 102.97 39.3908 103.177 39.8378C103.384 40.2883 103.696 40.5118 104.114 40.5118C104.886 40.5118 105.756 39.7435 106.721 38.2035C107.686 36.6635 108.464 34.5997 109.061 32.0016C109.18 31.4883 109.282 30.9435 109.373 30.3673C109.461 29.7911 109.506 29.1975 109.506 28.5899C109.506 28.108 109.475 27.6226 109.419 27.1232C109.359 26.6273 109.271 26.121 109.152 25.6076V25.2724C109.626 24.4064 110.243 23.7499 111.001 23.3029C111.759 22.8559 112.524 22.6289 113.296 22.6289C114.334 22.6289 115.271 23.013 116.102 23.7813C116.934 24.5495 117.348 25.674 117.348 27.1476C117.348 28.0137 117.2 29.0159 116.902 30.1508C116.604 31.2892 116.278 32.466 115.923 33.6848C115.566 34.8721 115.239 36.0384 114.945 37.1943C114.646 38.3467 114.499 39.3734 114.499 40.2708C114.499 41.5838 114.931 42.2403 115.79 42.2403C116.029 42.2403 116.316 42.167 116.66 42.0238C117.001 41.8806 117.32 41.5838 117.618 41.1334L117.93 41.2276C117.93 42.38 117.639 43.3997 117.06 44.2797C116.481 45.1632 115.744 45.8407 114.857 46.3226C113.966 46.8045 113.046 47.0454 112.096 47.0454C110.878 47.0454 109.787 46.5635 108.822 45.6032C107.857 44.6429 107.373 43.0714 107.373 40.8924V40.7946C106.156 43.04 104.893 44.6394 103.588 45.5997C102.272 46.581 101.054 47.0594 99.9248 47.0594Z" fill="#fff"/>
<path d="M125.449 47.0586C124.379 47.0586 123.428 46.5872 122.597 45.6408C121.765 44.6945 121.351 43.357 121.351 41.6284C121.351 40.7938 121.439 39.851 121.618 38.7929C121.797 37.7348 122.004 36.6522 122.242 35.5487C122.481 34.4418 122.688 33.4011 122.867 32.4233C123.046 31.4456 123.133 30.6389 123.133 29.9964C123.133 29.3224 123.021 28.7881 122.8 28.3865C122.576 27.9849 122.288 27.7859 121.93 27.7859C121.365 27.7859 120.786 28.2014 120.193 29.036L119.927 28.844C119.895 28.3306 120 27.723 120.239 27.0176C120.477 26.3122 120.846 25.6313 121.351 24.9748C121.856 24.3183 122.502 23.7665 123.288 23.316C124.074 22.8691 125.003 22.6421 126.07 22.6421C127.645 22.6421 128.785 23.131 129.501 24.1087C130.213 25.0865 130.571 26.2633 130.571 27.6427C130.571 27.8662 130.564 28.1002 130.55 28.3411C130.536 28.5821 130.512 28.816 130.484 29.0395C131.554 26.9583 132.673 25.3624 133.848 24.2554C135.02 23.1484 136.111 22.5967 137.122 22.5967C138.072 22.5967 138.771 22.9983 139.216 23.798C139.662 24.5976 139.883 25.5614 139.883 26.6824C139.883 27.7091 139.697 28.7497 139.325 29.8078C138.953 30.8659 138.406 31.7389 137.676 32.4268C136.95 33.1148 136.066 33.443 135.027 33.4116L134.848 33.3138C134.817 32.4792 134.564 31.8227 134.09 31.3443C133.613 30.8624 133.08 30.6249 132.487 30.6249C131.683 30.6249 130.936 31.0579 130.238 31.924C129.54 32.79 129.192 34.0402 129.192 35.6745C129.192 36.6697 129.298 37.7418 129.505 38.8941C129.712 40.0465 129.817 41.0243 129.817 41.8275C129.817 42.7878 129.61 43.6713 129.192 44.471C128.775 45.2706 128.242 45.9062 127.589 46.3706C126.933 46.8281 126.221 47.0586 125.449 47.0586Z" fill="#fff"/>
<path d="M147.896 47.2998C146.054 47.2998 144.524 47.0274 143.307 46.4826C142.09 45.9379 141.184 45.2395 140.591 44.3909C139.999 43.5423 139.7 42.6833 139.7 41.8207C139.7 40.602 140.206 39.523 141.216 38.5766C142.226 37.6303 143.591 37.1588 145.314 37.1588C145.314 38.7931 145.507 40.0991 145.893 41.0769C146.279 42.0547 146.777 42.7531 147.384 43.1687C147.991 43.5842 148.58 43.7937 149.142 43.7937C149.826 43.7937 150.394 43.5772 150.857 43.1442C151.317 42.7112 151.548 42.1769 151.548 41.5344C151.548 40.6369 151.117 39.8512 150.257 39.1772C149.394 38.5033 148.282 37.7525 146.917 36.9179C146.233 36.4709 145.493 35.9506 144.689 35.3569C143.886 34.7633 143.205 34.0439 142.64 33.1953C142.076 32.3468 141.795 31.3306 141.795 30.1433C141.795 28.8931 142.128 27.7896 142.798 26.8258C143.465 25.8655 144.349 25.0553 145.447 24.3988C146.545 23.7423 147.735 23.2464 149.012 22.9077C150.289 22.5725 151.534 22.4014 152.752 22.4014C155.039 22.4014 156.762 22.8972 157.92 23.8925C159.078 24.8877 159.657 25.9423 159.657 27.0633C159.657 28.0236 159.211 28.8896 158.32 29.6579C157.429 30.4261 156.064 30.8103 154.222 30.8103C154.25 29.176 153.938 27.9817 153.285 27.2274C152.633 26.4731 151.934 26.0995 151.191 26.0995C150.657 26.0995 150.212 26.2776 149.854 26.6268C149.496 26.9795 149.321 27.4928 149.321 28.1633C149.321 28.9315 149.549 29.5985 150.012 30.1572C150.471 30.7195 151.05 31.2153 151.748 31.6483C152.447 32.0814 153.166 32.4899 153.91 32.8741C154.92 33.3874 155.871 33.9322 156.762 34.5084C157.653 35.0845 158.379 35.741 158.944 36.4779C159.509 37.2147 159.79 38.1122 159.79 39.1703C159.79 40.6125 159.246 41.9499 158.165 43.1826C157.081 44.4153 155.632 45.4106 153.822 46.1614C152.012 46.9226 150.036 47.2998 147.896 47.2998Z" fill="#fff"/>
<path d="M42.9542 47.2024C40.7859 47.2024 38.9896 46.731 37.5652 45.7847C36.1407 44.8383 35.0706 43.5917 34.3584 42.0342C33.6462 40.4802 33.2883 38.8075 33.2883 37.0126C33.2883 35.3155 33.5936 33.6078 34.2005 31.8932C34.8075 30.1786 35.6987 28.6177 36.874 27.2069C38.0458 25.7961 39.4738 24.6612 41.1508 23.7951C42.8279 22.9291 44.7224 22.4961 46.831 22.4961C49.4448 22.4961 51.3534 23.1282 52.5533 24.3958C53.7568 25.6634 54.3567 27.1929 54.3567 28.9843C54.3567 30.5209 53.9778 31.9421 53.22 33.2377C52.4621 34.5367 51.4622 35.5774 50.2132 36.3631C48.9677 37.1488 47.5994 37.5399 46.1153 37.5399C45.3434 37.5399 44.5575 37.4107 43.7541 37.1558C42.9507 36.9009 42.1648 36.4993 41.3929 35.9545C41.5403 37.9415 42.0771 39.3837 42.9963 40.2812C43.9155 41.1786 45.0136 41.6256 46.2907 41.6256C47.1819 41.6256 48.073 41.4405 48.9642 41.0739C49.8553 40.7072 50.6798 40.2253 51.4377 39.6316C52.1955 39.038 52.7814 38.4059 53.1954 37.732L53.5077 37.9729C53.5077 39.6386 53.1884 41.0564 52.5498 42.2263C51.9113 43.3961 51.0728 44.3494 50.0343 45.0863C48.9958 45.8231 47.859 46.3609 46.6275 46.6961C45.3996 47.0348 44.1716 47.2024 42.9542 47.2024ZM43.9786 34.2259C44.9294 34.2259 45.7013 33.9291 46.2942 33.3355C46.8872 32.7418 47.3327 32.0469 47.631 31.2437C47.9292 30.444 48.0765 29.7386 48.0765 29.1275C48.0765 28.3907 47.8836 27.7726 47.4976 27.2767C47.1117 26.7809 46.5784 26.5329 45.8943 26.5329C45.361 26.5329 44.7716 26.7424 44.1365 27.158C43.498 27.5736 42.9261 28.2859 42.4209 29.2986C41.9157 30.3078 41.5894 31.7117 41.442 33.5031C42.3928 33.985 43.2384 34.2259 43.9786 34.2259Z" fill="#fff"/>
<path d="M8.07996 12.9831C8.31502 12.7841 8.49746 12.6234 8.68692 12.4733C9.94295 11.4745 11.0867 10.392 11.7533 8.87994C12.3392 7.54946 12.5533 6.212 12.0656 4.81518C12.0059 4.64756 11.9603 4.48343 12.2094 4.43105C13.7005 4.12724 15.1846 3.89676 16.6512 4.54629C18.1212 5.19581 18.665 6.64152 18.0124 8.17105C17.4616 9.4701 16.4442 10.3291 15.3074 11.073C13.2655 12.4069 11.0516 13.1891 8.57816 13.1018C8.48343 13.0984 8.38519 13.0949 8.29046 13.0844C8.25187 13.0774 8.21679 13.0495 8.07996 12.9831Z" fill="#fff"/>
<path d="M9.72898 5.82129C9.88686 7.10986 9.56057 8.22732 8.80274 9.22954C7.88001 10.4413 6.66959 11.3073 5.35391 12.0407C5.32234 12.0581 5.27673 12.0511 5.23813 12.0546C4.74344 9.91748 7.20288 6.48129 9.72898 5.82129Z" fill="#fff"/>
<path d="M16.0477 16.353C17.2055 16.4123 21.4543 15.5498 23.1138 14.2123C24.2505 13.2974 25.04 12.1799 24.6224 10.6155C24.04 8.43995 22.4367 7.11646 20.5807 5.9082C20.6017 6.10376 20.6052 6.22249 20.6298 6.33773C20.8929 7.59487 20.6403 8.74725 19.9737 9.83677C18.9843 11.4571 17.588 12.6409 15.9285 13.4965C15.2162 13.8631 13.8549 14.1739 13.7111 14.4358C13.5673 14.6942 14.8899 16.2901 16.0477 16.353Z" fill="#fff"/>
<path d="M16.8126 20.2985C17.0021 20.3404 19.6966 21.4893 21.2964 21.5382C22.9489 21.5871 24.5488 21.3042 26.0083 20.4556C27.0889 19.8271 27.7591 18.9506 27.8292 17.641C27.8889 16.548 27.7485 15.4934 27.4328 14.4563C27.3801 14.2852 27.31 14.1175 27.2468 13.9395C27.1802 13.9779 27.1486 13.9883 27.1345 14.0058C26.2785 15.4585 24.9944 16.4083 23.4857 17.0858C21.4263 18.0112 19.2475 17.8436 17.0056 17.9658C16.781 17.9763 16.5565 17.9937 16.332 18.0112C16.2863 19.0029 16.6232 20.2566 16.8126 20.2985Z" fill="#fff"/>
<path d="M28.9133 39.4633C28.4537 39.8544 27.9695 40.0465 27.4643 40.0465C27.0047 40.0465 26.5872 39.8055 26.2223 39.3236C25.8539 38.8417 25.6714 37.9617 25.6714 36.6767C25.6714 35.4405 25.8539 33.8586 26.2223 31.9344C26.5907 30.0103 27.0397 27.9011 27.5695 25.6103C27.8081 24.5836 28.0432 23.5465 28.2747 22.5059C28.2747 22.5059 26.2398 24.2798 22.0472 24.2798C17.8546 24.2798 16.4301 22.5059 16.4301 22.5059C16.3915 22.67 16.3565 22.8341 16.3144 22.9982C15.6442 25.7954 15.0478 28.4878 14.518 31.0754C13.9882 33.6665 13.7251 35.9224 13.7251 37.8465C13.7251 40.0011 14.0935 41.7646 14.8303 43.137C15.567 44.5128 16.5213 45.5081 17.6967 46.1262C18.872 46.7443 20.0789 47.0551 21.3209 47.0551C22.7945 47.0551 24.2084 46.6884 25.5662 45.9551C26.924 45.2217 28.0502 44.216 28.9519 42.9309C29.85 41.6494 30.3202 40.1827 30.3658 38.5309L29.8114 38.3913C29.6746 38.7195 29.3729 39.0757 28.9133 39.4633Z" fill="#fff"/>
</svg>
