<svg width="570" height="63" viewBox="0 0 570 63" fill="none" xmlns="http://www.w3.org/2000/svg">
<path fill-rule="evenodd" clip-rule="evenodd" d="M412 1.083C412 1.679 402.568 15.629 391.041 32.083C372.731 58.219 370.379 62 372.434 62C373.728 62 375.007 61.425 375.276 60.722C375.926 59.029 410.835 8.987 412.896 6.794C414.387 5.208 415.498 6.513 428.647 25.294C436.427 36.407 442.705 45.597 442.598 45.715C442.491 45.833 439.526 44.768 436.009 43.348C432.492 41.927 425.539 39.919 420.558 38.886L411.5 37.006L409.255 39.753C408.02 41.264 407.008 42.725 407.006 43C407.004 43.275 410.686 43.586 415.188 43.691C432.219 44.089 445 48.996 451.089 57.474L454.339 62H461.792C467.607 62 469.031 61.725 468.271 60.75C463.385 54.477 427 1.838 427 1.041C427 0.412 424.032 0 419.5 0C414.783 0 412 0.402 412 1.083ZM508.5 0.715C497.577 2.225 486.131 7.018 484.018 10.966C483.458 12.012 483 14.532 483 16.566C483 24.682 492.798 29.391 522.424 35.514C541.976 39.556 549.592 42.527 550.59 46.501C552.742 55.076 541.459 60 519.661 60C507.771 60 499.88 58.51 492.892 54.945L488.845 52.88L489.173 55.19C489.856 60.012 507.758 63.561 527 62.69C554.074 61.464 569.455 55.069 569.455 45.038C569.455 36.193 562.178 32.724 529.5 25.989C506.544 21.257 499.245 17.106 501.482 10.055C504.22 1.43 535.881 -0.541001 550.324 7.015C556.098 10.036 556.144 10.043 555.824 7.79C555.128 2.909 543.203 -0.0510004 525.04 0.15C517.593 0.232 510.15 0.486 508.5 0.715ZM0 31.5C0 61.254 0.0490012 62 1.984 62C3.91 62 3.977 61.17 4.234 33.82L4.5 5.64L28 33.773L51.5 61.906L59 61.908L66.5 61.91L89.5 33.849L112.5 5.788L112.766 33.894L113.031 62H120.516H128V31.5V1H119.544H111.088L87.884 28.75C75.122 44.013 64.365 56.864 63.981 57.309C63.596 57.754 52.531 45.282 39.391 29.592L15.5 1.066L7.75 1.033L0 1V31.5ZM167.328 24.282C158.433 37.052 148.859 50.763 146.052 54.75C141.787 60.808 141.265 62 142.874 62C144.266 62 150.31 54.103 164.651 33.549C175.568 17.901 184.725 5.093 185 5.086C185.534 5.072 213.861 45.352 213.573 45.715C213.48 45.833 210.526 44.768 207.009 43.348C203.492 41.927 196.539 39.918 191.558 38.883L182.5 37L180.25 39.556C177.289 42.919 177.37 44.375 180.475 43.596C183.852 42.748 199.904 44.659 205.741 46.603C212.724 48.93 219.417 53.521 222.403 58.033L225.028 62H232.466H239.903L218.701 31.55L197.5 1.101L190.5 1.082L183.5 1.063L167.328 24.282ZM252.115 2.818C253.427 3.818 262.695 10.358 272.712 17.352C282.728 24.345 291.154 30.44 291.436 30.896C291.717 31.351 282.397 38.424 270.725 46.612C252.449 59.432 249.883 61.544 252.245 61.816C254.416 62.066 259.196 59.182 275.127 48.01C286.203 40.243 295.783 34.086 296.416 34.33C297.05 34.573 306.305 40.898 316.984 48.386L336.4 62H345.4C350.527 62 353.991 61.628 353.45 61.135C352.928 60.66 343.275 53.842 332 45.986C320.725 38.129 311.381 31.612 311.235 31.502C311.089 31.393 320.723 24.485 332.644 16.152C351.683 2.842 353.923 1 351.071 1C348.512 1 343.58 3.976 327.829 15.022L307.834 29.043L287.749 15.022L267.664 1H258.697C249.822 1 249.755 1.019 252.115 2.818Z" fill="black"/>
</svg>
