<svg width="100" height="60" viewBox="0 0 100 60" fill="none" xmlns="http://www.w3.org/2000/svg">
<path fill-rule="evenodd" clip-rule="evenodd" d="M1.12504 0.152885C0.830728 0.290245 0.764259 0.298628 0.764259 0.198361C0.764259 0.109187 0.659506 0.0754823 0.382257 0.0754823H0.000254528V1.21874V2.36199H0.424702H0.849149V1.6187C0.849149 0.674208 0.959335 0.478161 1.46918 0.515592C1.89159 0.546587 1.93191 0.64406 1.94422 1.66333L1.95271 2.36199H2.37716H2.80161V1.5623C2.80161 0.831892 2.81799 0.751103 2.99031 0.630765C3.21493 0.473758 3.57631 0.458768 3.71841 0.600532C3.78378 0.665739 3.82028 0.999485 3.82028 1.53207V2.36199H4.24744H4.67452L4.65067 1.37583C4.62707 0.404316 4.62316 0.387125 4.38709 0.211403C4.08284 -0.0148767 3.3915 -0.0292734 2.97852 0.182186C2.71383 0.317683 2.67088 0.319038 2.48658 0.198615C2.1528 -0.0195345 1.53871 -0.0401978 1.12504 0.152885ZM6.12273 0.0756516C5.83063 0.144416 5.3572 0.536002 5.45185 0.630511C5.48055 0.659134 5.65202 0.702324 5.83292 0.726544C6.07172 0.758471 6.19277 0.733318 6.27477 0.634745C6.43122 0.446574 7.17723 0.445727 7.24947 0.633559C7.33317 0.851116 7.25584 0.892697 6.56043 1.00423C5.58114 1.16132 5.34829 1.31655 5.34829 1.8123C5.34829 2.28501 6.22061 2.57065 6.94081 2.33387C7.19412 2.25063 7.37307 2.23132 7.42383 2.28179C7.46815 2.32591 7.6892 2.36199 7.91492 2.36199C8.29446 2.36199 8.31874 2.34962 8.2375 2.19821C8.1892 2.1081 8.14964 1.69314 8.14964 1.27607C8.14964 0.679967 8.11789 0.4785 8.00108 0.334704C7.75592 0.0328853 6.84056 -0.0933805 6.12273 0.0756516ZM9.16203 0.619586L9.70261 1.16377L9.17901 1.74167L8.6555 2.31965L9.09471 2.34573C9.50906 2.37029 9.55397 2.35216 9.88716 2.02587L10.2405 1.68002L10.5567 2.02105C10.8603 2.34844 10.8939 2.36199 11.3978 2.36199H11.9226L11.3331 1.76928L10.7435 1.17656L11.2905 0.626022L11.8374 0.0754823H11.3341C10.872 0.0754823 10.8056 0.100126 10.5218 0.376539L10.2127 0.677596L9.94777 0.376539C9.69726 0.0919113 9.65397 0.0754823 9.1521 0.0754823H8.62145L9.16203 0.619586ZM7.30075 1.4235C7.30075 1.71465 7.20558 1.84414 6.9235 1.93704C6.57036 2.05323 6.19718 1.92798 6.19718 1.69314C6.19718 1.53012 6.45397 1.40462 6.96119 1.31968C7.07791 1.30012 7.2021 1.27895 7.23708 1.2726C7.27205 1.26624 7.30075 1.33416 7.30075 1.4235ZM0.0993205 6.76055C0.114855 6.80433 0.624192 7.3658 1.23115 8.0083C10.4393 17.7558 21.1518 26.135 32.7676 32.6759C33.5379 33.1097 34.4547 33.6265 34.8049 33.8243C35.7452 34.3555 38.8165 35.9544 40.3683 36.7206C52.864 42.8897 67.1563 47.7966 80.051 50.3443C80.6813 50.4689 81.2128 50.5846 81.2321 50.6014C81.2514 50.6184 81.1961 50.8407 81.1093 51.0957C81.0224 51.3506 80.9694 51.5771 80.9915 51.5991C81.036 51.6436 87.2606 50.8362 87.3185 50.7785C87.3385 50.7585 87.1536 50.6636 86.9075 50.5675C86.6615 50.4713 85.486 49.9895 84.2955 49.4966C83.1049 49.0038 82.09 48.6004 82.0402 48.6003C81.9904 48.6003 81.8832 48.8101 81.8023 49.0665C81.674 49.4723 81.6307 49.5275 81.4684 49.4928C81.3658 49.4709 80.8617 49.3725 80.3481 49.2741C76.4557 48.5284 70.8373 47.108 65.972 45.6395C60.4361 43.9687 53.1842 41.3081 48.2599 39.1411C47.8864 38.9767 47.2752 38.708 46.9017 38.5438C35.0446 33.3335 23.6946 26.4739 14.5163 18.9711C10.2938 15.5194 5.64948 11.1557 2.35993 7.54931L1.87741 7.02036L1.00254 6.85091C-0.0229203 6.65232 0.0639216 6.66096 0.0993205 6.76055ZM0.0213072 35.8668L0.0426992 59.9904H1.48582H2.92894L2.95033 37.2842L2.97172 14.578L1.48582 13.1606L0 11.7432L0.0213072 35.8668ZM10.972 40.3095L10.9934 59.9904H12.4366H13.8797L13.9023 41.7407L13.9248 23.491L13.7325 23.3363C13.6267 23.2511 12.9575 22.6071 12.2454 21.905L10.9507 20.6286L10.972 40.3095ZM21.9227 44.636L21.9442 59.9904H23.4297H24.9153L24.9353 45.6362C24.9464 37.7414 24.9273 31.2417 24.8929 31.1922C24.8585 31.1428 24.5821 30.9561 24.2786 30.7773C23.9752 30.5986 23.3639 30.2176 22.9204 29.9306C22.4769 29.6437 22.0661 29.3803 22.0076 29.3453C21.9225 29.2944 21.9055 32.3529 21.9227 44.636ZM32.8734 48.0618L32.8949 59.9904H34.3805H35.866L35.8876 49.1022L35.9092 38.2141L35.7178 38.0411C35.4766 37.8231 33.1692 36.2546 32.9872 36.1849C32.8637 36.1377 32.8537 37.1758 32.8734 48.0618ZM43.8241 50.3574L43.8456 59.9904H45.3312H46.8168L46.8384 51.0048L46.86 42.0192L46.0744 41.6975C45.6423 41.5206 44.9935 41.2293 44.6327 41.0502C44.272 40.8711 43.9375 40.7245 43.8896 40.7245C43.8304 40.7245 43.8094 43.8125 43.8241 50.3574ZM54.7539 52.4867C54.7539 58.3641 54.7763 59.9382 54.86 59.9688C54.9184 59.9902 55.5965 60.0038 56.3668 59.9991L57.7675 59.9904L57.7892 53.2375L57.811 46.4845L56.3683 45.764C55.5748 45.3677 54.887 45.0434 54.8398 45.0434C54.7825 45.0434 54.7539 47.5265 54.7539 52.4867ZM65.7253 54.38L65.7471 59.9904H67.2327H68.7182L68.7401 54.821L68.762 49.6515L67.297 49.2077C66.4913 48.9635 65.8031 48.7651 65.7677 48.7667C65.7323 48.7683 65.7132 51.2943 65.7253 54.38ZM76.7607 55.9796L76.7827 59.9904H78.2259H79.669L79.6911 56.4726L79.7133 52.9547L78.3329 52.5011C77.5737 52.2516 76.9044 52.0298 76.8456 52.0082C76.7603 51.9769 76.7431 52.7827 76.7607 55.9796ZM94.8217 56.3066V56.6453H95.2886H95.7555V56.3066V55.9679H95.2886H94.8217V56.3066ZM90.0679 56.9952C89.9045 57.0429 89.7345 57.1171 89.6902 57.1601C89.5653 57.281 89.3888 57.2523 89.3888 57.1111C89.3888 57.0152 89.2851 56.9841 88.9644 56.9841H88.5399V58.2967V59.6093H88.9972H89.4544L89.4878 58.7107C89.5182 57.8924 89.5389 57.7977 89.719 57.6521C89.9298 57.4818 90.3669 57.4425 90.5773 57.5749C90.6755 57.6368 90.7112 57.8784 90.7331 58.6322L90.7617 59.6093H91.2213H91.6808V58.7587C91.6808 57.9683 91.6956 57.8932 91.8892 57.7001C92.1211 57.4687 92.6141 57.4145 92.771 57.6031C92.8217 57.6641 92.8741 58.1309 92.8875 58.6404L92.9117 59.567H93.3786H93.8455V58.5845C93.8455 57.4779 93.7644 57.2294 93.346 57.0532C92.9369 56.8809 92.2712 56.9197 91.901 57.1375C91.5853 57.3233 91.5808 57.3236 91.3542 57.1626C91.069 56.96 90.4594 56.8807 90.0679 56.9952ZM98.3124 56.997C98.1545 57.0423 97.9349 57.1385 97.8243 57.2108C97.634 57.3352 97.6231 57.3324 97.6231 57.1588C97.6231 56.9906 97.5858 56.9774 97.1774 57.0009L96.7318 57.0264V58.2967V59.567H97.1987H97.6655L97.708 58.66C97.7567 57.6191 97.8324 57.4996 98.4459 57.4949C98.9779 57.4908 99.0662 57.6679 99.0662 58.739V59.6093H99.5331H100V58.547C100 57.5418 99.9891 57.4736 99.7987 57.2836C99.5958 57.0813 99.0838 56.8942 98.7691 56.9075C98.6757 56.9114 98.4702 56.9517 98.3124 56.997ZM94.8217 58.2967V59.6093H95.2886H95.7555V58.2967V56.9841H95.2886H94.8217V58.2967Z" fill="#C0828A"/>
</svg>
