<svg width="954" height="712" viewBox="0 0 954 712" fill="none" xmlns="http://www.w3.org/2000/svg">
<path fill-rule="evenodd" clip-rule="evenodd" d="M323.389 0.244018C308.064 3.81702 301.609 6.34502 300.511 9.20502C298.515 14.406 299.322 15.466 324.485 40.762C343.438 59.816 348.943 65.909 348.486 67.327C348.16 68.338 345.98 74.546 343.64 81.122L339.386 93.077L325.864 98.461L312.34 103.845L288.465 80.315C275.335 67.374 263.288 56.245 261.695 55.586C258.147 54.116 254.771 55.389 252.327 59.119C247.562 66.391 244.713 89.48 246.784 104.04C249.673 124.361 258.03 140.725 273.389 156.133C286.187 168.974 295.732 174.618 312.45 179.232C321.621 181.764 343.656 182.299 353.826 180.239C363.754 178.227 362.233 177.452 377.389 192.241C400.058 214.363 401.589 215.666 404.895 215.666C409.328 215.666 412.889 211.797 412.889 206.98C412.889 203.41 411.89 202.214 394.639 185.112C380.624 171.219 375.058 166.373 370.653 164.233L364.917 161.445L353.396 163.186C324.25 167.592 302.151 161.208 284.35 143.24C278.906 137.745 276.255 133.984 272.653 126.65C266.547 114.215 264.88 107.648 264.181 93.28L263.603 81.395L266.495 83.538C268.086 84.717 275.686 92.282 283.381 100.35C299.605 117.357 304.116 120.666 311.075 120.666C315.849 120.666 338.863 112.781 348.626 107.8C353.843 105.139 355.212 102.558 361.266 83.978C366.135 69.034 366.93 62.556 364.473 57.866C363.695 56.381 354.717 46.876 344.521 36.743C334.326 26.61 326.214 17.947 326.495 17.493C326.776 17.038 331.632 16.666 337.287 16.666C354.658 16.666 368.813 21.407 382.128 31.686C394.057 40.895 404.7 56.875 408.422 71.166C410.916 80.744 411.406 96.726 409.511 106.744C407.381 118.01 407.468 121.452 409.994 125.666C411.147 127.591 421.854 138.953 433.788 150.916C455.055 172.236 455.566 172.666 459.614 172.666C464.559 172.666 467.889 169.266 467.889 164.217C467.889 161.41 465.413 158.568 446.748 139.948L425.607 118.859L426.181 114.512C429.391 90.19 429.325 83.755 425.71 68.666C419.426 42.438 400.057 18.689 376.389 8.19302C363.323 2.39901 354.393 0.446013 339.389 0.100013C331.689 -0.0769869 324.489 -0.0129821 323.389 0.244018ZM650.341 8.79002C633.591 19.097 607.787 36.888 606.397 39.087C605.675 40.23 603.406 47.118 601.355 54.392L597.626 67.617L582.457 82.892C574.114 91.293 546.695 119.047 521.523 144.569L475.756 190.972L469.932 185.208C465 180.328 463.429 179.368 459.674 178.945C448.199 177.652 438.426 188.906 436.948 205.114C435.785 217.88 432.535 220.971 418.583 222.584C404.19 224.247 404.066 224.346 359.317 269.603C300.389 329.202 298.757 331.124 295.235 345.09C292.585 355.595 292.884 371.322 295.881 379.166C300.825 392.106 308.713 400.769 321.389 407.18C337.428 415.291 354.711 415.449 370.889 407.633C379.326 403.557 379.736 403.177 426.24 356.346C452.008 330.397 474.413 307.258 476.03 304.927C480.139 299.002 481.889 293.453 482.576 284.166C483.545 271.06 485.985 268.427 498.165 267.341C511.515 266.15 522.097 258.814 524.85 248.841C526.534 242.743 525.129 239.719 517.017 231.979L509.483 224.793L521.9 211.979C563.142 169.423 626.855 105.249 629.488 103.613C631.193 102.555 637.043 100.103 642.488 98.165C660.894 91.616 660.765 91.706 666.391 81.421C670.85 73.27 679.591 58.534 690.235 41.225C695.496 32.669 695.221 30.221 688.138 22.563C684.975 19.144 678.899 13.268 674.633 9.50601C664.605 0.663011 663.596 0.634015 650.341 8.79002ZM668.659 27.524L674.928 33.288L666.302 48.227C661.557 56.443 655.81 66.316 653.531 70.166L649.388 77.166L637.194 81.242C630.487 83.483 623.154 86.596 620.899 88.159C617.521 90.5 567.95 140.457 511.91 197.995C505.573 204.501 499.542 210.286 498.507 210.851C496.932 211.71 496.012 211.168 492.859 207.522C490.787 205.126 489.386 202.632 489.745 201.98C490.103 201.328 517.395 173.295 550.393 139.684C589.126 100.231 611.163 77.054 612.573 74.287C613.774 71.93 615.964 65.763 617.441 60.584C618.918 55.404 620.479 50.513 620.91 49.714C621.597 48.44 660.592 21.868 661.888 21.79C662.163 21.774 665.21 24.354 668.659 27.524ZM481.737 221.363C494.745 233.847 505.529 244.841 505.7 245.796C506.148 248.299 503.163 249.511 494.045 250.532C476.004 252.55 467.933 261.172 465.516 281.009C464.836 286.595 463.853 291.913 463.334 292.826C462.154 294.899 446.014 311.552 402.678 355.411C377.985 380.402 367.523 390.324 363.968 392.126C347.644 400.397 326.481 395.375 315.653 380.659C308.19 370.514 308.535 350.437 316.374 338.902C319.683 334.032 408.397 244.13 412.175 241.818C414.128 240.622 418.787 239.441 424.049 238.806C434.668 237.524 440.725 234.795 445.834 228.991C450.393 223.812 452.607 217.981 453.51 208.778C454.197 201.778 455.278 198.666 457.022 198.666C457.606 198.666 468.728 208.88 481.737 221.363ZM160.271 216.554C149.484 219.34 138.697 228.496 134.803 238.169L132.389 244.166L132.104 343.166C131.794 451.035 131.827 451.82 137.468 469.772C140.348 478.938 147.191 493.31 152.129 500.563C156.68 507.248 159.915 511.151 196.889 554.567C238.429 603.343 245.155 611.621 249.38 619.166C252.278 624.342 255.889 635.102 255.889 638.56C255.889 639.276 253.052 639.666 247.839 639.666C238.785 639.666 234.925 641.098 233.084 645.138C231.435 648.758 231.403 704.505 233.048 708.116C235.264 712.98 245.394 713.328 247.91 708.627C248.472 707.576 248.889 696.343 248.889 682.232V657.666H332.389H415.889V682.492C415.889 707.149 415.905 707.332 418.203 709.492C421.289 712.39 428.072 712.483 430.889 709.666C432.8 707.755 432.889 706.333 432.889 677.713C432.889 656.62 432.536 646.985 431.694 645.138C429.859 641.11 425.989 639.666 417.025 639.666H409.062L408.626 598.916C408.202 559.329 408.116 557.862 405.616 547.525C400.193 525.098 390.757 507.438 375.243 490.682C367.251 482.049 357.665 474.43 341.889 464.171C334.464 459.343 324.727 453.01 320.252 450.098C308.918 442.723 306.708 440.612 289.304 420.537C280.843 410.776 268.529 396.964 261.939 389.843L249.959 376.896L247.949 333.967C245.728 286.523 245.123 282.625 238.338 272.019C233.009 263.688 222.305 256.132 210.241 252.186C205.286 250.566 205.145 250.409 203.581 244.783C201.679 237.943 195.257 227.947 190.367 224.217C181.906 217.764 168.651 214.389 160.271 216.554ZM785.922 217.267C773.371 220.64 763.96 229.905 759.432 243.348L757.245 249.846L750.816 252.409C732.982 259.521 721.139 272.448 717.503 288.769C716.72 292.287 715.8 302.366 715.461 311.166C715.121 319.966 714.406 338.335 713.871 351.986L712.898 376.806L697.143 394.024C688.478 403.494 675.63 417.879 668.592 425.99C655.686 440.865 650.051 445.769 636.051 454.306C614.793 467.27 602.198 476.357 592.358 485.835C573.038 504.444 561.661 525.005 555.654 552.166C553.915 560.032 553.601 566.113 553.165 600.416L552.667 639.666H544.201C536.287 639.666 535.555 639.846 532.969 642.432L530.203 645.198L529.597 675.682C529.034 704.007 529.117 706.343 530.79 708.666C533.277 712.121 540.825 712.73 543.836 709.719C545.797 707.758 545.889 706.546 545.889 682.666V657.666H629.389H712.888V681.732C712.888 710.7 713.157 711.62 721.638 711.651C724.57 711.661 726.508 711.046 727.888 709.666C729.802 707.752 729.888 706.333 729.888 676.589V645.512L726.966 642.589C724.166 639.789 723.661 639.666 714.99 639.666H705.938L706.539 636.416C707.768 629.772 711.144 621.121 714.451 616.138C716.326 613.313 731.223 595.289 747.555 576.084C814.232 497.68 816.06 495.215 823.738 473.441C830.601 453.977 830.388 458.032 830.388 346.666C830.388 233.85 830.855 241.147 822.958 230.636C817.871 223.866 812.625 220.072 805.034 217.674C797.622 215.332 793.451 215.244 785.922 217.267ZM175.87 235.657C180.521 238.03 184.268 242.67 186.428 248.735C187.958 253.032 188.671 262.119 194.482 351.166L196.18 377.166L192.615 382.973C185.791 394.089 185.569 408.146 192.01 421.166C193.642 424.466 199.502 432.566 205.031 439.166C223.462 461.167 236.393 477.06 244.898 488.166C260.07 507.979 272.894 523.598 274.843 524.642C280.355 527.591 286.889 523.575 286.889 517.239C286.889 514.377 285.36 511.711 278.687 502.943C262.125 481.182 229.393 440.124 217.079 425.666C208.244 415.291 205.485 409.703 205.478 402.166C205.469 391.418 210.721 385.595 221.107 384.844C233.205 383.969 237.175 387.296 270.403 426.166C292.295 451.775 296.186 455.565 308.98 463.74C340.775 484.056 349.658 490.341 358.162 498.53C367.997 508.001 373.955 515.78 378.844 525.533C383.701 535.225 389.664 554.167 390.839 563.64C391.416 568.3 391.889 587.316 391.889 605.898V639.682L332.697 639.424L273.507 639.166L272.3 632.666C270.606 623.535 267.577 615.434 262.984 607.758C259.283 601.572 242.649 580.973 222.934 558.166C203.475 535.655 170.295 495.125 165.219 487.666C158.996 478.521 154.489 467.943 151.156 454.666C149.716 448.929 149.479 436.601 149.146 349.666C148.752 246.525 148.753 246.487 153.081 240.399C157.627 234.006 168.286 231.788 175.87 235.657ZM802.186 235.017C806.068 236.639 811.566 242.652 812.625 246.434C813.045 247.937 813.367 292.591 813.341 345.666C813.289 452.187 813.407 449.967 806.859 467.907C799.843 487.133 797.896 489.726 735.117 563.465C719.057 582.33 704.537 599.77 702.85 602.221C697.804 609.556 692.901 620.892 690.591 630.563L688.415 639.666H629.053H569.691L570.168 601.416C570.698 558.751 570.983 556.429 577.978 537.808C582.805 524.957 590.255 513.537 601.566 501.651C611.662 491.042 617.445 486.666 641.889 471.139C652.064 464.675 662.586 457.558 665.272 455.321C667.958 453.085 678.757 441.336 689.268 429.211C699.78 417.086 713.106 402.39 718.883 396.552C727.948 387.392 730.039 385.78 734.133 384.789C747.404 381.575 758.609 390.361 757.638 403.22C757.099 410.367 754.14 415.776 744.818 426.666C733.378 440.029 681.738 504.424 678.32 509.589C674.545 515.294 674.519 520.091 678.245 523.296C682.266 526.754 686.508 526.436 689.961 522.416C691.496 520.628 701.861 507.691 712.996 493.666C724.13 479.641 738.235 462.316 744.339 455.166C757.877 439.308 766.931 428.114 769.292 424.317C772.774 418.718 774.889 410.566 774.883 402.759C774.877 393.497 773.854 389.579 769.763 383.131L766.612 378.166L767.209 366.166C769.383 322.567 774.244 254.471 775.51 249.875C777.142 243.951 782.596 237.145 787.388 235.054C791.314 233.34 798.132 233.323 802.186 235.017ZM534.344 243.121C532.733 244.731 531.887 246.709 531.884 248.871C531.881 251.836 534.057 254.329 553.634 273.78C565.599 285.667 576.739 296.069 578.389 296.894C580.206 297.803 585.925 298.655 592.895 299.056C612.053 300.159 620.732 303.404 630.474 313.106C639.776 322.371 644.812 334.263 644.865 347.092L644.888 353.018L633.766 341.304C621.828 328.732 618.961 326.666 613.451 326.666C609.844 326.666 592.594 331.768 587.671 334.291C580.863 337.78 577.73 343.936 573.821 361.498C571.583 371.555 571.57 371.918 573.32 375.168C574.309 377.005 580.017 383.334 586.004 389.234C591.991 395.134 596.889 400.172 596.889 400.43C596.889 401.439 583.371 399.38 578.11 397.57C570.413 394.922 564.95 391.542 559.605 386.12C549.715 376.088 544.063 359.337 545.363 343.907C545.827 338.393 545.598 335.855 544.409 333.35C542.221 328.738 506.053 292.979 502.747 292.159C496.468 290.601 490.409 297.679 492.891 303.672C493.576 305.325 501.731 314.047 511.013 323.054L527.889 339.431L527.897 345.299C527.928 369.458 535.157 387.596 550.17 401.182C563.23 413.001 579.13 418.302 598.779 417.39C616.364 416.573 623.889 412.965 623.889 405.348C623.889 402.743 621.468 399.863 607.242 385.548L590.595 368.796L591.195 363.732C591.525 360.947 592.698 356.625 593.803 354.128C595.429 350.451 596.685 349.202 600.407 347.555C602.935 346.437 606.584 345.265 608.516 344.952C611.948 344.395 612.413 344.764 628.709 360.947C639.075 371.243 646.436 377.774 648.157 378.203C651.845 379.121 656.653 377.027 658.321 373.775C662.323 365.976 663.499 343.539 660.544 331.365C655.222 309.441 639.51 292.602 617.379 285.107C610.979 282.94 607.001 282.315 597.389 281.964L585.389 281.526L567.389 263.077C557.489 252.931 548.039 243.74 546.389 242.654C542.203 239.899 537.379 240.086 534.344 243.121ZM416.389 254.607C413.331 255.852 332.513 339.295 331.541 342.211C329.574 348.11 336.423 354.934 342.131 352.764C343.416 352.275 353.446 342.716 364.419 331.521C375.393 320.326 393.913 301.491 405.575 289.666C417.237 277.841 427.236 266.945 427.795 265.453C429.204 261.692 427.393 256.978 423.83 255.136C420.674 253.504 419.333 253.408 416.389 254.607ZM212.736 272.088C219.089 275.308 224.15 281.099 226.89 288.285C228.928 293.632 229.267 297.417 230.637 329.955C231.466 349.639 231.966 365.922 231.749 366.14C231.531 366.357 227.085 366.63 221.87 366.746L212.389 366.956L210.249 330.061C209.072 309.769 207.808 287.878 207.439 281.416C207.07 274.954 207.036 269.666 207.362 269.666C207.688 269.666 210.107 270.756 212.736 272.088ZM755.498 275.416C755.176 278.579 754.209 294.441 753.349 310.666C751.089 353.328 750.304 365.583 749.799 366.088C749.226 366.661 730.967 367.079 730.42 366.531C730.194 366.305 730.66 350.605 731.456 331.643C732.99 295.099 733.77 289.638 738.482 282.404C741.369 277.972 745.802 273.838 750.219 271.458C755.611 268.552 756.156 268.962 755.498 275.416ZM414.13 301.916C400.54 315.803 381.65 335.081 372.154 344.754C356.974 360.218 354.889 362.734 354.889 365.581C354.889 369.735 359.551 374.666 363.479 374.666C366.654 374.666 375.263 366.404 422.171 318.338C449.877 289.949 451.276 288.335 451.178 284.866C451.045 280.18 447.244 276.666 442.308 276.666C439.093 276.666 437.028 278.516 414.13 301.916Z" fill="#B7868A"/>
</svg>
